<?xml version="1.0" encoding="UTF-8" standalone="no"?>
<!-- Generator: Adobe Illustrator 22.0.1, SVG Export Plug-In . SVG Version: 6.00 Build 0)  -->

<svg
   version="1.1"
   id="Layer_1"
   x="0px"
   y="0px"
   viewBox="0 0 30 30"
   xml:space="preserve"
   sodipodi:docname="barometer.svg"
   inkscape:version="1.2.1 (9c6d41e4, 2022-07-14)"
   inkscape:export-filename="ti-6.svg"
   inkscape:export-xdpi="96"
   inkscape:export-ydpi="96"
   width="30"
   height="30"
   xmlns:inkscape="http://www.inkscape.org/namespaces/inkscape"
   xmlns:sodipodi="http://sodipodi.sourceforge.net/DTD/sodipodi-0.dtd"
   xmlns="http://www.w3.org/2000/svg"
   xmlns:svg="http://www.w3.org/2000/svg"><defs
   id="defs134" /><sodipodi:namedview
   id="namedview132"
   pagecolor="#ffffff"
   bordercolor="#666666"
   borderopacity="1.0"
   inkscape:showpageshadow="2"
   inkscape:pageopacity="0.0"
   inkscape:pagecheckerboard="0"
   inkscape:deskcolor="#d1d1d1"
   showgrid="true"
   inkscape:zoom="16.527824"
   inkscape:cx="13.159627"
   inkscape:cy="17.394909"
   inkscape:window-width="1280"
   inkscape:window-height="687"
   inkscape:window-x="0"
   inkscape:window-y="23"
   inkscape:window-maximized="1"
   inkscape:current-layer="g2566"
   showguides="true"><inkscape:grid
     type="xygrid"
     id="grid726"
     originx="0"
     originy="0" /><sodipodi:guide
     position="0.066666667,0.33333"
     orientation="0,-1"
     id="guide728"
     inkscape:locked="false" /></sodipodi:namedview>

<g
   id="g2566"
   style="stroke:none;fill:#000000"><path
     id="path1694"
     style="color:#000000;fill:#000000;stroke:none;stroke-linecap:round;-inkscape-stroke:none"
     d="M 15 2.9980469 C 13.474625 2.9987691 12.201492 4.2300497 12.201172 5.75 L 12.201172 7.3984375 L 12.21875 7.3984375 C 8.0543006 8.6066514 5 12.453567 5 17.001953 C 5 22.515309 9.4866448 27.001953 15 27.001953 C 20.513354 27.001953 25 22.515309 25 17.001953 C 25 12.453567 21.945699 8.6066514 17.78125 7.3984375 L 17.798828 7.3984375 L 17.798828 5.75 C 17.798508 4.2300502 16.525375 2.9987698 15 2.9980469 z M 15 4.5996094 C 15.681585 4.5999324 16.197132 5.1153654 16.197266 5.75 L 16.197266 7.0703125 L 16.158203 7.0703125 C 15.778115 7.0262622 15.391694 7.0019531 15 7.0019531 C 14.608306 7.0019531 14.221885 7.0262622 13.841797 7.0703125 L 13.802734 7.0703125 L 13.802734 5.75 C 13.802915 5.1153651 14.318415 4.5999321 15 4.5996094 z M 15 8.6015625 C 19.648653 8.6015625 23.400391 12.3533 23.400391 17.001953 C 23.400391 21.650606 19.648653 25.402344 15 25.402344 C 10.351347 25.402344 6.5996094 21.650606 6.5996094 17.001953 C 6.5996094 12.3533 10.351347 8.6015625 15 8.6015625 z M 14.199219 9.5996094 L 14.199219 12 L 15.800781 12 L 15.800781 9.5996094 L 14.199219 9.5996094 z M 10.333984 11.201172 L 9.2011719 12.333984 L 10.898438 14.029297 L 12.029297 12.898438 L 10.333984 11.201172 z M 19.666016 11.201172 L 17.970703 12.898438 L 19.101562 14.029297 L 20.798828 12.333984 L 19.666016 11.201172 z M 13.472656 14.439453 L 12.228516 19.234375 A 1.8 1.7999999 9.114137 0 0 10.833984 20.648438 A 1.8 1.7999999 9.114137 0 0 12.255859 22.761719 A 1.8 1.7999999 9.114137 0 0 14.367188 21.339844 A 1.8 1.7999999 9.114137 0 0 13.605469 19.501953 L 14.257812 14.59375 L 13.472656 14.439453 z M 17.001953 15.800781 A 0.80008001 0.80008001 0 0 0 16.201172 16.601562 L 16.201172 20.226562 L 16.201172 23.398438 A 0.80000001 0.80000001 0 0 0 17.001953 24.199219 A 0.80000001 0.80000001 0 0 0 17.802734 23.398438 L 17.802734 21.027344 L 19.001953 21.027344 C 19.974593 21.027344 20.892696 20.562042 21.410156 19.75 C 21.927618 18.937961 21.927618 17.890165 21.410156 17.078125 C 20.892696 16.266086 19.974595 15.800781 19.001953 15.800781 L 17.001953 15.800781 z M 7.5996094 16.199219 L 7.5996094 17.800781 L 10 17.800781 L 10 16.199219 L 7.5996094 16.199219 z M 17.802734 17.400391 L 19.001953 17.400391 C 19.459014 17.400391 19.863154 17.627736 20.060547 17.9375 C 20.257939 18.247263 20.257938 18.580864 20.060547 18.890625 C 19.863154 19.20039 19.459015 19.425781 19.001953 19.425781 L 17.802734 19.425781 L 17.802734 17.400391 z " /><path
     style="color:#000000;fill:#000000;stroke:none"
     d="m 7.5996094,16.199219 v 1.601562 H 10 v -1.601562 z"
     id="path8192" /><g
     id="g8948"
     transform="matrix(1.093939,0.21368724,-0.21275162,1.0891492,-3.101953,1.3432084)"
     inkscape:transform-center-y="-2.0830106"
     inkscape:transform-center-x="0.057460913"
     style="fill:#000000;stroke:none;stroke-width:0.899142" /></g></svg>
