<?xml version="1.0" encoding="UTF-8" standalone="no"?>
<!-- Generator: Adobe Illustrator 22.0.1, SVG Export Plug-In . SVG Version: 6.00 Build 0)  -->

<svg
   version="1.1"
   id="Layer_1"
   x="0px"
   y="0px"
   viewBox="0 0 30 30"
   xml:space="preserve"
   sodipodi:docname="clear_sky_night.svg"
   inkscape:version="1.2.1 (9c6d41e4, 2022-07-14)"
   inkscape:export-filename="ti-6.svg"
   inkscape:export-xdpi="96"
   inkscape:export-ydpi="96"
   width="30"
   height="30"
   xmlns:inkscape="http://www.inkscape.org/namespaces/inkscape"
   xmlns:sodipodi="http://sodipodi.sourceforge.net/DTD/sodipodi-0.dtd"
   xmlns="http://www.w3.org/2000/svg"
   xmlns:svg="http://www.w3.org/2000/svg"><defs
   id="defs134" /><sodipodi:namedview
   id="namedview132"
   pagecolor="#ffffff"
   bordercolor="#666666"
   borderopacity="1.0"
   inkscape:showpageshadow="2"
   inkscape:pageopacity="0.0"
   inkscape:pagecheckerboard="0"
   inkscape:deskcolor="#d1d1d1"
   showgrid="true"
   inkscape:zoom="14.514146"
   inkscape:cx="11.816059"
   inkscape:cy="14.261949"
   inkscape:window-width="1280"
   inkscape:window-height="456"
   inkscape:window-x="0"
   inkscape:window-y="23"
   inkscape:window-maximized="0"
   inkscape:current-layer="g4830"
   showguides="true"><inkscape:grid
     type="xygrid"
     id="grid726"
     originx="0"
     originy="0" /><sodipodi:guide
     position="0.066666667,0.33333"
     orientation="0,-1"
     id="guide728"
     inkscape:locked="false" /></sodipodi:namedview>

<g
   id="g2566"
   style="stroke:none;fill:#000000"><g
     id="g4830"
     transform="matrix(0.63076919,0,0,0.63076919,5.5384623,5.5384623)"
     style="fill:#000000;stroke:none;stroke-width:1.58537"><path
       style="color:#000000;fill:#000000;stroke-linecap:round;-inkscape-stroke:none;stroke:none;stroke-opacity:1"
       d="M 15,7.0742187 C 10.638291,7.0750282 7.0750282,10.638291 7.0742187,15 7.0750287,19.361708 10.638292,22.924972 15,22.925781 h 0.002 c 3.879082,-0.0035 7.20071,-2.834467 7.818359,-6.664062 l 0.216797,-1.34961 -1.361328,-0.117187 c -2.79026,-0.238818 -4.916524,-2.545732 -4.929687,-5.3457032 -7e-6,-0.00133 5e-6,-0.00258 0,-0.00391 0.0018,-0.2892492 0.02605,-0.5780516 0.07422,-0.8632812 l 0.228516,-1.3496094 -1.363281,-0.125 c -0.22551,-0.020742 -0.451277,-0.031838 -0.677734,-0.033203 h -0.0039 z m -0.732422,2.6835938 c 0.149257,3.4140865 2.487673,6.1966505 5.681641,7.1406245 C 19.165126,18.945159 17.27082,20.385779 15,20.388672 12.008832,20.388117 9.6118835,17.991168 9.6113281,15 9.6118349,12.269177 11.643574,10.126783 14.267578,9.7578125 Z"
       id="path57926" /></g></g></svg>
