<?xml version="1.0" encoding="UTF-8" standalone="no"?>
<!-- Generator: Adobe Illustrator 22.0.1, SVG Export Plug-In . SVG Version: 6.00 Build 0)  -->

<svg
   version="1.1"
   id="Layer_1"
   x="0px"
   y="0px"
   viewBox="0 0 30 30"
   xml:space="preserve"
   width="30"
   height="30"
   sodipodi:docname="few_clouds_night.svg"
   inkscape:version="1.2.1 (9c6d41e4, 2022-07-14)"
   xmlns:inkscape="http://www.inkscape.org/namespaces/inkscape"
   xmlns:sodipodi="http://sodipodi.sourceforge.net/DTD/sodipodi-0.dtd"
   xmlns="http://www.w3.org/2000/svg"
   xmlns:svg="http://www.w3.org/2000/svg"><sodipodi:namedview
   id="namedview12689"
   pagecolor="#ffffff"
   bordercolor="#666666"
   borderopacity="1.0"
   inkscape:showpageshadow="2"
   inkscape:pageopacity="0.0"
   inkscape:pagecheckerboard="0"
   inkscape:deskcolor="#d1d1d1"
   showgrid="false"
   inkscape:zoom="13.23987"
   inkscape:cx="16.276595"
   inkscape:cy="13.293182"
   inkscape:window-width="1280"
   inkscape:window-height="456"
   inkscape:window-x="0"
   inkscape:window-y="23"
   inkscape:window-maximized="0"
   inkscape:current-layer="g2566"><sodipodi:guide
     position="24.191406,14"
     orientation="0,1"
     id="guide62945"
     inkscape:locked="false"
     inkscape:label=""
     inkscape:color="rgb(0,134,229)" /><sodipodi:guide
     position="28,19"
     orientation="0,-3.808594"
     id="guide62947"
     inkscape:locked="false" /><sodipodi:guide
     position="14,28"
     orientation="-1,0"
     id="guide62949"
     inkscape:locked="false"
     inkscape:label=""
     inkscape:color="rgb(0,134,229)" /><sodipodi:guide
     position="19,24.191406"
     orientation="-3.8085937,0"
     id="guide62951"
     inkscape:locked="false" /></sodipodi:namedview><defs
   id="defs134" />

<g
   id="g2566"
   style="stroke:none;fill:#000000"><path
     style="color:#000000;fill:#000000"
     d="M 11.527726,7.8359375 C 10.116071,7.8338182 8.6946614,8.2656005 7.5921791,9.1816406 6.6419084,9.9712099 6.0576308,11.197208 5.887101,12.638672 c -1.1430259,0.165963 -2.1338509,0.635481 -2.7734375,1.40625 -0.767359,0.924748 -1.1270819,2.114771 -1.1132813,3.294922 0.013801,1.180151 0.4034918,2.373786 1.2207032,3.294922 0.8172114,0.921135 2.0757242,1.529296 3.625,1.529296 H 17.685929 c 1.553862,0 2.820087,-0.606262 3.644531,-1.527343 0.824444,-0.921082 1.219427,-2.119099 1.21875,-3.306641 -6.76e-4,-1.187542 -0.396192,-2.385876 -1.220703,-3.30664 -0.82451,-0.920765 -2.090677,-1.527344 -3.642578,-1.527344 H 17.137101 C 16.93755,11.129187 16.378858,9.953108 15.463273,9.1914063 14.361683,8.2749622 12.939381,7.8380568 11.527726,7.8359375 Z m -0.002,1.5996094 c 1.079093,0.00162 2.147592,0.3467263 2.914062,0.9843751 0.766471,0.637649 1.269532,1.541831 1.269532,2.876953 v 0.798828 h 1.976562 c 1.154416,0 1.919134,0.402173 2.449219,0.994141 0.530085,0.591967 0.81398,1.4108 0.814453,2.240234 4.73e-4,0.829434 -0.28097,1.648584 -0.810547,2.240234 -0.529576,0.591651 -1.296073,0.994141 -2.453125,0.994141 H 6.8460854 c -1.1508848,0 -1.9028824,-0.40059 -2.4277344,-0.992187 C 3.893499,18.980668 3.6097774,18.157138 3.5999916,17.320312 3.5902058,16.483487 3.856221,15.654391 4.3441323,15.066406 4.8320435,14.478422 5.5136687,14.095703 6.5453041,14.095703 h 0.8007813 v -0.800781 c 0,-1.343465 0.5019997,-2.246702 1.2675781,-2.882813 C 9.3792419,9.7759989 10.44668,9.4339268 11.525773,9.4355469 Z"
     id="path4686" /><path
     id="path57926"
     style="color:#000000;fill:#000000;stroke:none;stroke-width:1;stroke-linecap:round;stroke-opacity:1;-inkscape-stroke:none"
     d="m 19,6.0019531 c -1.886846,3.505e-4 -3.537984,1.0575923 -4.388672,2.609375 0.299417,0.166234 0.585007,0.3583232 0.851563,0.5800781 0.157769,0.1312531 0.300936,0.2788766 0.4375,0.4335938 0.472,-1.0302899 1.458102,-1.7659113 2.636718,-1.9316406 0.09415,2.1534988 1.56933,3.9084766 3.583985,4.5039066 -0.231666,0.604718 -0.617977,1.124766 -1.109375,1.507812 0.111612,0.1011 0.217288,0.20767 0.316406,0.31836 0.267323,0.29853 0.483813,0.629504 0.662109,0.976562 1.008295,-0.755572 1.728818,-1.885014 1.941407,-3.203125 l 0.136718,-0.851563 -0.857421,-0.07422 C 21.450929,10.720455 20.109864,9.2661332 20.101562,7.5 c -4e-6,-8.39e-4 3e-6,-0.00301 0,-0.00391 0.0011,-0.1824489 0.0165,-0.363055 0.04688,-0.5429688 l 0.142578,-0.8515625 -0.859375,-0.080078 c -0.142244,-0.01308 -0.284893,-0.018671 -0.427735,-0.019531 h -0.002 z"
     sodipodi:nodetypes="scsccccsccccsccccccs" /></g></svg>
