<?xml version="1.0" encoding="UTF-8" standalone="no"?>
<!-- Generator: Adobe Illustrator 22.0.1, SVG Export Plug-In . SVG Version: 6.00 Build 0)  -->

<svg
   version="1.1"
   id="Layer_1"
   x="0px"
   y="0px"
   viewBox="0 0 30 30"
   xml:space="preserve"
   sodipodi:docname="rain.svg"
   inkscape:version="1.2.1 (9c6d41e4, 2022-07-14)"
   inkscape:export-filename="test.png"
   inkscape:export-xdpi="320"
   inkscape:export-ydpi="320"
   width="30"
   height="30"
   xmlns:inkscape="http://www.inkscape.org/namespaces/inkscape"
   xmlns:sodipodi="http://sodipodi.sourceforge.net/DTD/sodipodi-0.dtd"
   xmlns="http://www.w3.org/2000/svg"
   xmlns:svg="http://www.w3.org/2000/svg"><defs
   id="defs134" /><sodipodi:namedview
   id="namedview132"
   pagecolor="#ffffff"
   bordercolor="#666666"
   borderopacity="1.0"
   inkscape:showpageshadow="2"
   inkscape:pageopacity="0.0"
   inkscape:pagecheckerboard="0"
   inkscape:deskcolor="#d1d1d1"
   showgrid="true"
   inkscape:zoom="11.962615"
   inkscape:cx="19.017581"
   inkscape:cy="15.046877"
   inkscape:window-width="1280"
   inkscape:window-height="456"
   inkscape:window-x="0"
   inkscape:window-y="23"
   inkscape:window-maximized="0"
   inkscape:current-layer="g38671"
   showguides="true"
   inkscape:lockguides="false"><inkscape:grid
     type="xygrid"
     id="grid726"
     originx="0"
     originy="0" /><sodipodi:guide
     position="5,3.8"
     orientation="0,1"
     id="guide10276"
     inkscape:label=""
     inkscape:locked="false"
     inkscape:color="rgb(255,120,0)" /><sodipodi:guide
     position="5,5.8"
     orientation="0,1"
     id="guide11730"
     inkscape:label=""
     inkscape:locked="false"
     inkscape:color="rgb(255,120,0)" /><sodipodi:guide
     position="5,7.8"
     orientation="0,1"
     id="guide13184"
     inkscape:label=""
     inkscape:locked="false"
     inkscape:color="rgb(255,120,0)" /><sodipodi:guide
     position="5,9.8"
     orientation="0,1"
     id="guide14638"
     inkscape:label=""
     inkscape:locked="false"
     inkscape:color="rgb(255,120,0)" /><sodipodi:guide
     position="5,11.8"
     orientation="0,1"
     id="guide16092"
     inkscape:label=""
     inkscape:locked="false"
     inkscape:color="rgb(255,120,0)" /></sodipodi:namedview>

<g
   id="g2566"
   style="stroke:none;fill:#000000"><g
     id="g38671"
     transform="translate(2.7257767)"><path
       id="path4686"
       style="color:#000000;fill:#000000;fill-opacity:1;stroke:none"
       d="M 11.529297,7.8359375 C 10.117644,7.8338182 8.6942769,8.2656024 7.5917969,9.1816406 6.6415024,9.9712295 6.0572253,11.197157 5.8867188,12.638672 4.7442781,12.804872 3.7526252,13.274446 3.1132812,14.044922 2.3459238,14.969668 1.9861994,16.159695 2,17.339844 c 0.013801,1.180149 0.4034933,2.373788 1.2207031,3.294922 0.6538279,0.736974 1.5907225,1.271913 2.7324219,1.457031 L 6.3769531,20.541016 C 5.4851092,20.446596 4.8678582,20.079367 4.4179688,19.572266 3.8931179,18.980668 3.6093952,18.157138 3.5996094,17.320312 3.5898236,16.483489 3.8558397,15.654391 4.34375,15.066406 4.8316603,14.478424 5.5152416,14.095703 6.546875,14.095703 h 0.7988281 v -0.800781 c 0,-1.343463 0.5039543,-2.246702 1.2695313,-2.882813 0.7655767,-0.636108 1.8330186,-0.9781822 2.9121096,-0.9765621 1.079091,0.00162 2.147594,0.3467273 2.914062,0.9843751 0.766469,0.637647 1.267578,1.541833 1.267578,2.876953 v 0.798828 H 17.6875 c 1.153166,5.2e-4 1.919477,0.402556 2.449219,0.994141 0.530082,0.591965 0.812027,1.410802 0.8125,2.240234 4.72e-4,0.829432 -0.280973,1.648586 -0.810547,2.240234 -0.529577,0.591651 -1.296076,0.994141 -2.453125,0.994141 h -0.798828 l -0.435547,1.599609 h 1.234375 c 1.553858,0 2.820089,-0.606264 3.644531,-1.527343 0.824442,-0.92108 1.219427,-2.119101 1.21875,-3.306641 -6.76e-4,-1.18754 -0.396195,-2.385878 -1.220703,-3.30664 -0.824508,-0.920765 -2.090681,-1.527344 -3.642578,-1.527344 H 17.136719 C 16.937143,11.129254 16.380396,9.9530802 15.464844,9.1914062 14.363256,8.2749642 12.940948,7.8380568 11.529297,7.8359375 Z m 3.697265,12.7285155 -0.435546,1.599609 h 0.002 l 0.435547,-1.599609 z"
       sodipodi:nodetypes="sscsssccsssscsssssccssssccssssscssccccc" /><path
       style="color:#000000;stroke-linecap:round;fill:#000000;fill-opacity:1;stroke:none"
       d="m 9.15625,16.427734 a 0.80000001,0.80000001 0 0 0 -0.9824219,0.5625 l -0.2734375,1 -0.2714844,1 -0.2714843,0.994141 -0.2734375,1.003906 -0.2734375,1 L 6.5351562,22.996094 6.265625,23.990234 5.9902344,25 a 0.80000001,0.80000001 0 0 0 0.5605468,0.982422 0.80000001,0.80000001 0 0 0 0.9824219,-0.560547 l 0.2753906,-1.011719 0.2714844,-0.992187 0.2734375,-1.007813 0.2734375,-1 0.2734375,-1.003906 0.2714844,-0.996094 0.2734375,-1 0.2714844,-1 A 0.80000001,0.80000001 0 0 0 9.15625,16.427734 Z"
       id="path21849" /><path
       style="color:#000000;stroke-linecap:round;fill:#000000;fill-opacity:1;stroke:none"
       d="m 12.755859,16.427734 a 0.80000001,0.80000001 0 0 0 -0.982421,0.5625 l -0.271485,1 -0.273437,1 -0.271485,0.994141 -0.273437,1.003906 -0.273438,1 -0.27539,1.007813 -0.2695316,0.99414 L 9.5898438,25 9.3183594,25.994141 9.046875,26.988281 a 0.80000001,0.80000001 0 0 0 0.5625,0.982422 0.80000001,0.80000001 0 0 0 0.980469,-0.5625 l 0.271484,-0.994141 0.271485,-0.992187 0.27539,-1.011719 0.271485,-0.992187 0.27539,-1.007813 0.271485,-1 L 12.5,20.40625 l 0.271484,-0.996094 0.273438,-1 0.273437,-1 a 0.80000001,0.80000001 0 0 0 -0.5625,-0.982422 z"
       id="path29111" /><path
       style="color:#000000;stroke-linecap:round;-inkscape-stroke:none;fill:#000000;fill-opacity:1;stroke:none"
       d="m 16.355469,16.427734 a 0.80000001,0.80000001 0 0 0 -0.982422,0.5625 l -0.271484,1 -0.273438,1 -0.271484,0.994141 -0.273438,1.003906 -0.273437,1 -0.273438,1.007813 -0.271484,0.99414 L 13.189453,25 A 0.80000001,0.80000001 0 0 0 13.75,25.982422 0.80000001,0.80000001 0 0 0 14.732422,25.421875 l 0.275391,-1.011719 0.271484,-0.992187 0.275391,-1.007813 0.271484,-1 0.27539,-1.003906 0.271485,-0.996094 0.271484,-1 0.273438,-1 a 0.80000001,0.80000001 0 0 0 -0.5625,-0.982422 z"
       id="path29113" /></g><g
     id="path6045" /><g
     id="path6047" /></g></svg>
