<?xml version="1.0" encoding="UTF-8" standalone="no"?>
<!-- Generator: Adobe Illustrator 22.0.1, SVG Export Plug-In . SVG Version: 6.00 Build 0)  -->

<svg
   version="1.1"
   id="Layer_1"
   x="0px"
   y="0px"
   viewBox="0 0 30 30"
   xml:space="preserve"
   sodipodi:docname="scattered_clouds_night.svg"
   inkscape:version="1.2.1 (9c6d41e4, 2022-07-14)"
   inkscape:export-filename="ti-6.svg"
   inkscape:export-xdpi="96"
   inkscape:export-ydpi="96"
   width="30"
   height="30"
   xmlns:inkscape="http://www.inkscape.org/namespaces/inkscape"
   xmlns:sodipodi="http://sodipodi.sourceforge.net/DTD/sodipodi-0.dtd"
   xmlns="http://www.w3.org/2000/svg"
   xmlns:svg="http://www.w3.org/2000/svg"><defs
   id="defs134" /><sodipodi:namedview
   id="namedview132"
   pagecolor="#ffffff"
   bordercolor="#666666"
   borderopacity="1.0"
   inkscape:showpageshadow="2"
   inkscape:pageopacity="0.0"
   inkscape:pagecheckerboard="0"
   inkscape:deskcolor="#d1d1d1"
   showgrid="true"
   inkscape:zoom="18.31856"
   inkscape:cx="21.153409"
   inkscape:cy="14.275139"
   inkscape:window-width="1280"
   inkscape:window-height="687"
   inkscape:window-x="0"
   inkscape:window-y="23"
   inkscape:window-maximized="1"
   inkscape:current-layer="g2566"
   showguides="true"><inkscape:grid
     type="xygrid"
     id="grid726"
     originx="0"
     originy="0" /><sodipodi:guide
     position="0.066666667,0.33333"
     orientation="0,-1"
     id="guide728"
     inkscape:locked="false" /></sodipodi:namedview>

<g
   id="g2566"
   style="stroke:none;fill:#000000"><path
     id="path4686"
     style="color:#000000;fill:#000000;stroke:none"
     d="M 11.052734 8.1503906 C 9.8178471 8.1629018 8.5967085 8.5141166 7.6171875 9.2636719 C 6.6535987 10.001034 6.0642691 11.205601 5.890625 12.638672 C 4.7464381 12.804162 3.7533477 13.273576 3.1132812 14.044922 C 2.3459254 14.969666 1.9861994 16.159697 2 17.339844 C 2.013801 18.519991 2.4034949 19.713634 3.2207031 20.634766 C 4.0066448 21.520654 5.2015367 22.115816 6.6699219 22.160156 C 6.6714029 22.140241 6.6722367 22.11936 6.6738281 22.099609 L 6.6777344 22.039062 L 7.0292969 20.564453 L 6.8457031 20.564453 C 5.6948232 20.564453 4.9428184 20.163859 4.4179688 19.572266 C 3.8931189 18.980668 3.6093952 18.157138 3.5996094 17.320312 C 3.5898236 16.483491 3.8558407 15.654391 4.34375 15.066406 C 4.8316593 14.478426 5.5152436 14.095703 6.546875 14.095703 L 7.3457031 14.095703 L 7.3457031 13.294922 C 7.3457031 11.951461 7.841243 11.108007 8.5898438 10.535156 C 9.2448691 10.033915 10.134308 9.7615087 11.070312 9.75 C 11.204028 9.74836 11.339585 9.7526498 11.474609 9.7617188 C 12.554816 9.8342697 13.635946 10.251189 14.417969 10.953125 C 14.888431 11.375407 15.256331 11.89388 15.476562 12.529297 C 15.48706 12.527179 15.497309 12.523557 15.507812 12.521484 L 15.546875 12.513672 L 16.978516 12.380859 C 16.708251 11.331771 16.213078 10.414043 15.486328 9.7617188 C 14.400298 8.7869086 12.992564 8.2607522 11.582031 8.1660156 C 11.405714 8.1541735 11.229148 8.1486033 11.052734 8.1503906 z " /><path
     id="path647"
     style="color:#000000;fill:#000000;stroke:none"
     d="m 17.140625,13.169922 -1.478516,0.136719 c -0.952459,0.187958 -1.861735,0.581618 -2.61914,1.210937 -0.949861,0.789228 -1.534185,2.016425 -1.705078,3.457031 -1.14244,0.1662 -2.1340945,0.637729 -2.7734379,1.408203 -0.298213,0.359379 -0.5338512,0.758646 -0.7109375,1.181641 l -0.3828125,1.599609 c -0.013697,0.169988 -0.021525,0.341245 -0.019531,0.511719 0.013801,1.180148 0.4034941,2.37379 1.2207031,3.294922 0.817209,0.921132 2.07573,1.529297 3.625,1.529297 h 10.839844 c 1.553856,0 2.82009,-0.606265 3.644531,-1.527344 0.824441,-0.921078 1.219427,-2.119104 1.21875,-3.30664 -6.77e-4,-1.18754 -0.396196,-2.385879 -1.220703,-3.306641 -0.824508,-0.920762 -2.090683,-1.527344 -3.642578,-1.527344 h -0.548828 c -0.01112,-0.07617 -0.02768,-0.149667 -0.04102,-0.224609 -0.0069,-0.406962 -0.0931,-0.714922 -0.244141,-0.958984 -0.290122,-0.856627 -0.749249,-1.590766 -1.386718,-2.121094 -1.056865,-0.879235 -2.409029,-1.309876 -3.763672,-1.345703 z m -0.263672,1.603516 c 0.03369,-6.16e-4 0.06784,-5.1e-5 0.101563,0 1.079089,0.0016 2.147595,0.346728 2.914062,0.984374 0.766468,0.637648 1.267578,1.539885 1.267578,2.875 v 0.800782 l 1.976563,-0.002 c 1.154413,0 1.921087,0.402176 2.451172,0.99414 0.530081,0.591968 0.812027,1.410801 0.8125,2.240235 4.72e-4,0.82943 -0.280974,1.648586 -0.810547,2.240234 -0.529577,0.591648 -1.296077,0.994141 -2.453125,0.994141 H 12.296875 c -1.150882,0 -1.902882,-0.400591 -2.4277344,-0.992188 -0.5248505,-0.5915 -0.8085737,-1.41513 -0.8183594,-2.251953 -0.00979,-0.836823 0.2562309,-1.663972 0.7441407,-2.251953 0.4879081,-0.587985 1.1714921,-0.972656 2.2031251,-0.972656 h 0.798828 v -0.798829 c 0,-1.343459 0.502003,-2.248658 1.267578,-2.884765 0.741651,-0.616231 1.767997,-0.955533 2.8125,-0.974609 z"
     sodipodi:nodetypes="ccscsccsssssssscccsccscssccssssscssscsss" /><path
     id="path57926"
     style="color:#000000;fill:#000000;stroke:none;stroke-width:1;stroke-linecap:round;stroke-opacity:1;-inkscape-stroke:none"
     d="M 19,6.0019531 C 16.959252,6.0023322 15.194925,7.2384388 14.419922,9 c 0.378742,0.2133012 0.737749,0.4667192 1.066406,0.7617188 0.09152,0.082147 0.179484,0.167516 0.263672,0.2578122 0.381141,-1.2354431 1.462916,-2.1399721 2.787109,-2.3261716 0.09415,2.1534966 1.569332,3.9084766 3.583985,4.5039066 -0.329108,0.85907 -0.968552,1.547648 -1.78125,1.914062 0.19979,0.125902 0.392655,0.263344 0.576172,0.416016 0.25703,0.213831 0.483938,0.461559 0.683593,0.736328 1.210579,-0.741278 2.09298,-1.984609 2.332032,-3.466797 l 0.136718,-0.851563 -0.857421,-0.07422 C 21.45093,10.720455 20.109864,9.2661314 20.101562,7.5 c -3e-6,-8.39e-4 3e-6,-0.00301 0,-0.00391 0.0011,-0.1824488 0.0165,-0.3630552 0.04688,-0.5429688 l 0.142578,-0.8515625 -0.859375,-0.080078 c -0.142244,-0.01308 -0.284893,-0.018671 -0.427735,-0.019531 h -0.002 z"
     sodipodi:nodetypes="scsccccsccccsccccccs" /></g></svg>
