<?xml version="1.0" encoding="UTF-8" standalone="no"?>
<!-- Generator: Adobe Illustrator 22.0.1, SVG Export Plug-In . SVG Version: 6.00 Build 0)  -->

<svg
   version="1.1"
   id="Layer_1"
   x="0px"
   y="0px"
   viewBox="0 0 30 30"
   xml:space="preserve"
   sodipodi:docname="scattered_clouds.svg"
   inkscape:version="1.2.1 (9c6d41e4, 2022-07-14)"
   inkscape:export-filename="ti-6.svg"
   inkscape:export-xdpi="96"
   inkscape:export-ydpi="96"
   width="30"
   height="30"
   xmlns:inkscape="http://www.inkscape.org/namespaces/inkscape"
   xmlns:sodipodi="http://sodipodi.sourceforge.net/DTD/sodipodi-0.dtd"
   xmlns="http://www.w3.org/2000/svg"
   xmlns:svg="http://www.w3.org/2000/svg"><defs
   id="defs134" /><sodipodi:namedview
   id="namedview132"
   pagecolor="#ffffff"
   bordercolor="#666666"
   borderopacity="1.0"
   inkscape:showpageshadow="2"
   inkscape:pageopacity="0.0"
   inkscape:pagecheckerboard="0"
   inkscape:deskcolor="#d1d1d1"
   showgrid="true"
   inkscape:zoom="11.193447"
   inkscape:cx="18.269618"
   inkscape:cy="17.956935"
   inkscape:window-width="1280"
   inkscape:window-height="456"
   inkscape:window-x="0"
   inkscape:window-y="23"
   inkscape:window-maximized="0"
   inkscape:current-layer="g2566"
   showguides="true"><inkscape:grid
     type="xygrid"
     id="grid726"
     originx="0"
     originy="0" /><sodipodi:guide
     position="0.066666667,0.33333"
     orientation="0,-1"
     id="guide728"
     inkscape:locked="false" /></sodipodi:namedview>

<g
   id="g2566"
   style="stroke:none;fill:#000000"><path
     style="color:#000000;stroke-linecap:round;-inkscape-stroke:none;fill:#000000;fill-opacity:1;stroke:none"
     d="M 24.992187,10.199219 A 0.80000001,0.80000001 0 0 0 24.191406,11 a 0.80000001,0.80000001 0 0 0 0.800781,0.800781 h 2.207032 A 0.80000001,0.80000001 0 0 0 28,11 0.80000001,0.80000001 0 0 0 27.199219,10.199219 Z"
     id="path3342" /><path
     style="color:#000000;stroke-linecap:round;fill:#000000;fill-opacity:1;stroke:none"
     d="m 23.236328,14.4375 a 0.80000001,0.80000001 0 0 0 -0.564453,0.234375 0.80000001,0.80000001 0 0 0 0,1.130859 l 1.560547,1.560547 a 0.80000001,0.80000001 0 0 0 1.130859,0 0.80000001,0.80000001 0 0 0 0,-1.130859 L 23.802734,14.671875 A 0.80000001,0.80000001 0 0 0 23.236328,14.4375 Z"
     id="path3707" /><path
     style="color:#000000;stroke-linecap:round;fill:#000000;fill-opacity:1;stroke:none"
     d="m 12.636719,4.6367187 a 0.80000001,0.80000001 0 0 0 0,1.1308594 l 1.560547,1.5605469 a 0.80000001,0.80000001 0 0 0 1.130859,0 0.80000001,0.80000001 0 0 0 0,-1.1308594 L 13.767578,4.6367187 a 0.80000001,0.80000001 0 0 0 -1.130859,0 z"
     id="path3735" /><path
     style="color:#000000;stroke-linecap:round;fill:#000000;fill-opacity:1;stroke:none"
     d="M 19,2 A 0.80000001,0.80000001 0 0 0 18.199219,2.8007813 V 5.0078125 A 0.80000001,0.80000001 0 0 0 19,5.8085937 0.80000001,0.80000001 0 0 0 19.800781,5.0078125 V 2.8007813 A 0.80000001,0.80000001 0 0 0 19,2 Z"
     id="path3737" /><path
     style="color:#000000;stroke-linecap:round;fill:#000000;fill-opacity:1;stroke:none"
     d="m 24.798828,4.4023437 a 0.80000001,0.80000001 0 0 0 -0.566406,0.234375 l -1.560547,1.5605469 a 0.80000001,0.80000001 0 0 0 0,1.1308594 0.80000001,0.80000001 0 0 0 1.130859,0 l 1.560547,-1.5605469 a 0.80000001,0.80000001 0 0 0 0,-1.1308594 0.80000001,0.80000001 0 0 0 -0.564453,-0.234375 z"
     id="path3739" /><path
     id="path4804"
     style="color:#000000;stroke-linecap:round;stroke-linejoin:round;fill:#000000;fill-opacity:1;stroke:none"
     d="m 19,6.6054688 c -1.826537,0 -3.399496,1.1286673 -4.060547,2.7226562 0.189476,0.1333657 0.372642,0.2772042 0.546875,0.4335938 0.282643,0.2536982 0.530203,0.5474432 0.744141,0.8730472 C 16.407703,9.2570103 17.570902,8.2050781 19,8.2050781 c 1.55332,0 2.794922,1.2416012 2.794922,2.7949219 0,1.34067 -0.925771,2.44624 -2.177734,2.724609 0.463934,0.206382 0.902503,0.473021 1.298828,0.802735 0.100481,0.08359 0.195454,0.174176 0.287109,0.267578 C 22.509656,14.031298 23.394531,12.615351 23.394531,11 23.394531,8.5819768 21.418024,6.6054688 19,6.6054688 Z"
     sodipodi:nodetypes="scscsscscss" /><path
     id="path4686"
     style="color:#000000;fill:#000000;stroke:none;fill-opacity:1"
     d="M 11.052734 8.1503906 C 9.8178471 8.1629018 8.5967085 8.5141166 7.6171875 9.2636719 C 6.6535987 10.001034 6.0642691 11.205601 5.890625 12.638672 C 4.7464381 12.804162 3.7533477 13.273576 3.1132812 14.044922 C 2.3459254 14.969666 1.9861994 16.159697 2 17.339844 C 2.013801 18.519991 2.4034949 19.713634 3.2207031 20.634766 C 4.0066448 21.520654 5.2015367 22.115816 6.6699219 22.160156 C 6.6714029 22.140241 6.6722367 22.11936 6.6738281 22.099609 L 6.6777344 22.039062 L 7.0292969 20.564453 L 6.8457031 20.564453 C 5.6948232 20.564453 4.9428184 20.163859 4.4179688 19.572266 C 3.8931189 18.980668 3.6093952 18.157138 3.5996094 17.320312 C 3.5898236 16.483491 3.8558407 15.654391 4.34375 15.066406 C 4.8316593 14.478426 5.5152436 14.095703 6.546875 14.095703 L 7.3457031 14.095703 L 7.3457031 13.294922 C 7.3457031 11.951461 7.841243 11.108007 8.5898438 10.535156 C 9.2448691 10.033915 10.134308 9.7615087 11.070312 9.75 C 11.204028 9.74836 11.339585 9.7526498 11.474609 9.7617188 C 12.554816 9.8342697 13.635946 10.251189 14.417969 10.953125 C 14.888431 11.375407 15.256331 11.89388 15.476562 12.529297 C 15.48706 12.527179 15.497309 12.523557 15.507812 12.521484 L 15.546875 12.513672 L 16.978516 12.380859 C 16.708251 11.331771 16.213078 10.414043 15.486328 9.7617188 C 14.400298 8.7869086 12.992564 8.2607522 11.582031 8.1660156 C 11.405714 8.1541735 11.229148 8.1486033 11.052734 8.1503906 z " /><path
     id="path647"
     style="color:#000000;fill:#000000;stroke:none;fill-opacity:1"
     d="m 17.140625,13.169922 -1.478516,0.136719 c -0.952459,0.187958 -1.861735,0.581618 -2.61914,1.210937 -0.949861,0.789228 -1.534185,2.016425 -1.705078,3.457031 -1.14244,0.1662 -2.1340945,0.637729 -2.7734379,1.408203 -0.298213,0.359379 -0.5338512,0.758646 -0.7109375,1.181641 l -0.3828125,1.599609 c -0.013697,0.169988 -0.021525,0.341245 -0.019531,0.511719 0.013801,1.180148 0.4034941,2.37379 1.2207031,3.294922 0.817209,0.921132 2.07573,1.529297 3.625,1.529297 h 10.839844 c 1.553856,0 2.82009,-0.606265 3.644531,-1.527344 0.824441,-0.921078 1.219427,-2.119104 1.21875,-3.30664 -6.77e-4,-1.18754 -0.396196,-2.385879 -1.220703,-3.306641 -0.824508,-0.920762 -2.090683,-1.527344 -3.642578,-1.527344 h -0.548828 c -0.01112,-0.07617 -0.02768,-0.149667 -0.04102,-0.224609 -0.0069,-0.406962 -0.0931,-0.714922 -0.244141,-0.958984 -0.290122,-0.856627 -0.749249,-1.590766 -1.386718,-2.121094 -1.056865,-0.879235 -2.409029,-1.309876 -3.763672,-1.345703 z m -0.263672,1.603516 c 0.03369,-6.16e-4 0.06784,-5.1e-5 0.101563,0 1.079089,0.0016 2.147595,0.346728 2.914062,0.984374 0.766468,0.637648 1.267578,1.539885 1.267578,2.875 v 0.800782 l 1.976563,-0.002 c 1.154413,0 1.921087,0.402176 2.451172,0.99414 0.530081,0.591968 0.812027,1.410801 0.8125,2.240235 4.72e-4,0.82943 -0.280974,1.648586 -0.810547,2.240234 -0.529577,0.591648 -1.296077,0.994141 -2.453125,0.994141 H 12.296875 c -1.150882,0 -1.902882,-0.400591 -2.4277344,-0.992188 -0.5248505,-0.5915 -0.8085737,-1.41513 -0.8183594,-2.251953 -0.00979,-0.836823 0.2562309,-1.663972 0.7441407,-2.251953 0.4879081,-0.587985 1.1714921,-0.972656 2.2031251,-0.972656 h 0.798828 v -0.798829 c 0,-1.343459 0.502003,-2.248658 1.267578,-2.884765 0.741651,-0.616231 1.767997,-0.955533 2.8125,-0.974609 z"
     sodipodi:nodetypes="ccscsccsssssssscccsccscssccssssscssscsss" /></g></svg>
