<?xml version="1.0" encoding="UTF-8" standalone="no"?>
<!-- Generator: Adobe Illustrator 22.0.1, SVG Export Plug-In . SVG Version: 6.00 Build 0)  -->

<svg
   version="1.1"
   id="Layer_1"
   x="0px"
   y="0px"
   viewBox="0 0 30 30"
   xml:space="preserve"
   sodipodi:docname="shower_rain_night.svg"
   inkscape:version="1.2.1 (9c6d41e4, 2022-07-14)"
   inkscape:export-filename="test.png"
   inkscape:export-xdpi="320"
   inkscape:export-ydpi="320"
   width="30"
   height="30"
   xmlns:inkscape="http://www.inkscape.org/namespaces/inkscape"
   xmlns:sodipodi="http://sodipodi.sourceforge.net/DTD/sodipodi-0.dtd"
   xmlns="http://www.w3.org/2000/svg"
   xmlns:svg="http://www.w3.org/2000/svg"><defs
   id="defs134" /><sodipodi:namedview
   id="namedview132"
   pagecolor="#ffffff"
   bordercolor="#666666"
   borderopacity="1.0"
   inkscape:showpageshadow="2"
   inkscape:pageopacity="0.0"
   inkscape:pagecheckerboard="0"
   inkscape:deskcolor="#d1d1d1"
   showgrid="true"
   inkscape:zoom="15.059173"
   inkscape:cx="14.310215"
   inkscape:cy="20.319841"
   inkscape:window-width="1280"
   inkscape:window-height="456"
   inkscape:window-x="0"
   inkscape:window-y="23"
   inkscape:window-maximized="0"
   inkscape:current-layer="g2566"
   showguides="true"
   inkscape:lockguides="false"><inkscape:grid
     type="xygrid"
     id="grid726"
     originx="0"
     originy="0" /><sodipodi:guide
     position="5,3.8"
     orientation="0,1"
     id="guide10276"
     inkscape:label=""
     inkscape:locked="false"
     inkscape:color="rgb(255,120,0)" /><sodipodi:guide
     position="5,5.8"
     orientation="0,1"
     id="guide11730"
     inkscape:label=""
     inkscape:locked="false"
     inkscape:color="rgb(255,120,0)" /><sodipodi:guide
     position="5,7.8"
     orientation="0,1"
     id="guide13184"
     inkscape:label=""
     inkscape:locked="false"
     inkscape:color="rgb(255,120,0)" /><sodipodi:guide
     position="5,9.8"
     orientation="0,1"
     id="guide14638"
     inkscape:label=""
     inkscape:locked="false"
     inkscape:color="rgb(255,120,0)" /><sodipodi:guide
     position="5,11.8"
     orientation="0,1"
     id="guide16092"
     inkscape:label=""
     inkscape:locked="false"
     inkscape:color="rgb(255,120,0)" /></sodipodi:namedview>

<g
   id="g2566"
   style="stroke:none;fill:#000000"><path
     id="path4686"
     style="color:#000000;-inkscape-stroke:none;fill:#000000;fill-opacity:1;stroke:none"
     d="M 11.529297,7.8359375 C 10.117644,7.8338182 8.6942769,8.2656024 7.5917969,9.1816406 6.6415024,9.9712295 6.0572253,11.197157 5.8867188,12.638672 4.7442781,12.804872 3.7526252,13.274446 3.1132812,14.044922 2.3459238,14.969668 1.9861994,16.159695 2,17.339844 c 0.013801,1.180149 0.4034933,2.373788 1.2207031,3.294922 0.6538279,0.736974 1.5907225,1.271913 2.7324219,1.457031 L 6.3769531,20.541016 C 5.4851092,20.446596 4.8678582,20.079367 4.4179688,19.572266 3.8931179,18.980668 3.6093952,18.157138 3.5996094,17.320312 3.5898236,16.483489 3.8558397,15.654391 4.34375,15.066406 4.8316603,14.478424 5.5152416,14.095703 6.546875,14.095703 h 0.7988281 v -0.800781 c 0,-1.343463 0.5039543,-2.246702 1.2695313,-2.882813 0.7655767,-0.636108 1.8330186,-0.9781822 2.9121096,-0.9765621 1.079091,0.00162 2.147594,0.3467273 2.914062,0.9843751 0.766469,0.637647 1.267578,1.541833 1.267578,2.876953 v 0.798828 H 17.6875 c 1.153166,5.2e-4 1.919477,0.402556 2.449219,0.994141 0.530082,0.591965 0.812027,1.410802 0.8125,2.240234 4.72e-4,0.829432 -0.280973,1.648586 -0.810547,2.240234 -0.529577,0.591651 -1.296076,0.994141 -2.453125,0.994141 h -0.798828 l -0.435547,1.599609 h 1.234375 c 1.553858,0 2.820089,-0.606264 3.644531,-1.527343 0.824442,-0.92108 1.219427,-2.119101 1.21875,-3.306641 -6.76e-4,-1.18754 -0.396195,-2.385878 -1.220703,-3.30664 -0.824508,-0.920765 -2.090681,-1.527344 -3.642578,-1.527344 H 17.136719 C 16.937143,11.129254 16.380396,9.9530802 15.464844,9.1914062 14.363256,8.2749642 12.940948,7.8380568 11.529297,7.8359375 Z m 3.697265,12.7285155 -0.435546,1.599609 h 0.002 l 0.435547,-1.599609 z"
     sodipodi:nodetypes="sscsssccsssscsssssccssssccssssscssccccc" /><g
     id="path6045"
     style="fill:#000000;fill-opacity:1;stroke:none" /><g
     id="path6047"
     style="fill:#000000;fill-opacity:1;stroke:none" /><path
     style="color:#000000;stroke-linecap:round;fill:#000000;fill-opacity:1;stroke:none"
     d="m 8.3398438,19.423828 a 0.80000001,0.80000001 0 0 0 -0.9824219,0.560547 l -0.2734375,1.003906 a 0.80000001,0.80000001 0 0 0 0.5605468,0.982422 0.80000001,0.80000001 0 0 0 0.9824219,-0.560547 L 8.9003906,20.40625 A 0.80000001,0.80000001 0 0 0 8.3398438,19.423828 Z m -1.0917969,4.003906 a 0.80000001,0.80000001 0 0 0 -0.9824219,0.5625 L 5.9902344,25 a 0.80000001,0.80000001 0 0 0 0.5605468,0.982422 0.80000001,0.80000001 0 0 0 0.9824219,-0.560547 L 7.8085937,24.410156 A 0.80000001,0.80000001 0 0 0 7.2480469,23.427734 Z"
     id="path21849" /><path
     style="color:#000000;stroke-linecap:round;fill:#000000;fill-opacity:1;stroke:none"
     d="m 12.484375,17.427734 a 0.80000001,0.80000001 0 0 0 -0.982422,0.5625 l -0.273437,1 a 0.80000001,0.80000001 0 0 0 0.560547,0.982422 0.80000001,0.80000001 0 0 0 0.982421,-0.5625 l 0.273438,-1 a 0.80000001,0.80000001 0 0 0 -0.560547,-0.982422 z m -1.091797,4 a 0.80000001,0.80000001 0 0 0 -0.982422,0.560547 l -0.27539,1.007813 a 0.80000001,0.80000001 0 0 0 0.5625,0.982422 0.80000001,0.80000001 0 0 0 0.982422,-0.560547 l 0.27539,-1.007813 a 0.80000001,0.80000001 0 0 0 -0.5625,-0.982422 z m -1.091797,4.003907 a 0.80000001,0.80000001 0 0 0 -0.9824216,0.5625 l -0.2714844,0.99414 a 0.80000001,0.80000001 0 0 0 0.5625,0.982422 0.80000001,0.80000001 0 0 0 0.980469,-0.5625 l 0.271484,-0.994141 a 0.80000001,0.80000001 0 0 0 -0.560547,-0.982421 z"
     id="path29111" /><path
     style="color:#000000;stroke-linecap:round;-inkscape-stroke:none;fill:#000000;fill-opacity:1;stroke:none"
     d="m 15.539063,19.423828 a 0.80000001,0.80000001 0 0 0 -0.982422,0.560547 l -0.273438,1.003906 a 0.80000001,0.80000001 0 0 0 0.5625,0.982422 0.80000001,0.80000001 0 0 0 0.980469,-0.560547 l 0.27539,-1.003906 a 0.80000001,0.80000001 0 0 0 -0.562499,-0.982422 z m -1.091797,4.003906 a 0.80000001,0.80000001 0 0 0 -0.982422,0.5625 L 13.189453,25 A 0.80000001,0.80000001 0 0 0 13.75,25.982422 0.80000001,0.80000001 0 0 0 14.732422,25.421875 l 0.275391,-1.011719 a 0.80000001,0.80000001 0 0 0 -0.560547,-0.982422 z"
     id="path29113" /><path
     id="path57926"
     style="color:#000000;fill:#000000;stroke:none;stroke-width:1;stroke-linecap:round;stroke-opacity:1;-inkscape-stroke:none;fill-opacity:1"
     d="m 19,6.0019531 c -1.886478,3.504e-4 -3.535885,1.0580887 -4.386719,2.609375 0.299417,0.1662339 0.585008,0.3583237 0.851563,0.5800781 0.156832,0.1304729 0.301716,0.2740614 0.4375,0.4277344 0.473008,-1.0273682 1.458269,-1.76035 2.634765,-1.9257812 0.09415,2.1534988 1.56933,3.9084766 3.583985,4.5039066 -0.231666,0.604718 -0.617977,1.124766 -1.109375,1.507812 0.111612,0.1011 0.217288,0.20767 0.316406,0.31836 0.266611,0.297735 0.48796,0.62467 0.666016,0.970703 1.005389,-0.755559 1.725301,-1.881573 1.9375,-3.197266 l 0.136718,-0.851563 -0.857421,-0.07422 C 21.450929,10.720455 20.109864,9.2661332 20.101562,7.5 c -4e-6,-8.39e-4 3e-6,-0.00301 0,-0.00391 0.0011,-0.1824489 0.0165,-0.363055 0.04688,-0.5429688 l 0.142578,-0.8515625 -0.859375,-0.080078 c -0.142244,-0.01308 -0.284893,-0.018671 -0.427735,-0.019531 h -0.002 z"
     sodipodi:nodetypes="scsccccsccccsccccccs" /></g></svg>
