<?xml version="1.0" encoding="UTF-8" standalone="no"?>
<!-- Generator: Adobe Illustrator 22.0.1, SVG Export Plug-In . SVG Version: 6.00 Build 0)  -->

<svg
   version="1.1"
   id="Layer_1"
   x="0px"
   y="0px"
   viewBox="0 0 30 30"
   xml:space="preserve"
   sodipodi:docname="thermometer.svg"
   inkscape:version="1.2.1 (9c6d41e4, 2022-07-14)"
   inkscape:export-filename="ti-6.svg"
   inkscape:export-xdpi="96"
   inkscape:export-ydpi="96"
   width="30"
   height="30"
   xmlns:inkscape="http://www.inkscape.org/namespaces/inkscape"
   xmlns:sodipodi="http://sodipodi.sourceforge.net/DTD/sodipodi-0.dtd"
   xmlns="http://www.w3.org/2000/svg"
   xmlns:svg="http://www.w3.org/2000/svg"><defs
   id="defs134" /><sodipodi:namedview
   id="namedview132"
   pagecolor="#ffffff"
   bordercolor="#666666"
   borderopacity="1.0"
   inkscape:showpageshadow="2"
   inkscape:pageopacity="0.0"
   inkscape:pagecheckerboard="0"
   inkscape:deskcolor="#d1d1d1"
   showgrid="true"
   inkscape:zoom="15.084715"
   inkscape:cx="14.352276"
   inkscape:cy="16.075875"
   inkscape:window-width="1280"
   inkscape:window-height="687"
   inkscape:window-x="0"
   inkscape:window-y="23"
   inkscape:window-maximized="1"
   inkscape:current-layer="Layer_1"
   showguides="true"><inkscape:grid
     type="xygrid"
     id="grid726"
     originx="0"
     originy="0" /><sodipodi:guide
     position="0.066666667,0.33333"
     orientation="0,-1"
     id="guide728"
     inkscape:locked="false" /></sodipodi:namedview>

<g
   id="g2566"
   style="stroke:none;fill:#000000"><path
     id="path935"
     style="color:#000000;stroke-linecap:round;fill:#000000;stroke:none"
     d="M 15 2.9980469 C 13.474625 2.9987691 12.201492 4.2300497 12.201172 5.75 L 12.201172 8 L 11.400391 8 C 11.179451 8.0002679 11.00038 8.1784657 11 8.3984375 C 10.999296 8.6191718 11.178685 8.7985601 11.400391 8.7988281 L 12.201172 8.7988281 L 12.201172 9.5996094 L 11.400391 9.5996094 C 11.179451 9.5998773 11.00038 9.7780751 11 9.9980469 C 10.999296 10.218782 11.178685 10.39817 11.400391 10.398438 L 12.201172 10.398438 L 12.201172 11.199219 L 11.400391 11.199219 C 11.179452 11.199487 11.00038 11.377684 11 11.597656 C 10.9982 11.819152 11.177914 11.999737 11.400391 12 L 12.201172 12 L 12.201172 12.798828 L 11.400391 12.798828 C 11.178685 12.799096 10.999296 12.978484 11 13.199219 C 10.999296 13.419953 11.178685 13.599341 11.400391 13.599609 L 12.201172 13.599609 L 12.201172 14.400391 L 11.400391 14.400391 C 11.179452 14.400659 11.00038 14.578856 11 14.798828 C 10.999296 15.019563 11.178685 15.198951 11.400391 15.199219 L 12.201172 15.199219 L 12.201172 17.861328 C 10.8758 18.762947 10.001953 20.28317 10.001953 22 C 10.001953 24.752537 12.248679 27.001953 15 27.001953 C 17.751321 27.001953 19.998047 24.752537 19.998047 22 C 19.998047 20.28317 19.1242 18.762947 17.798828 17.861328 L 17.798828 5.75 C 17.798508 4.2300502 16.525375 2.9987698 15 2.9980469 z M 15 4.5996094 C 15.681585 4.5999324 16.197132 5.1153654 16.197266 5.75 L 16.197266 16 L 16.199219 16 L 16.199219 17.144531 L 16.197266 17.144531 L 16.197266 18.8125 L 16.199219 18.8125 L 16.199219 18.818359 C 16.342018 18.872129 16.482116 18.934706 16.617188 19.007812 L 16.724609 19.066406 C 17.150957 19.317135 17.518982 19.656695 17.798828 20.0625 C 18.177281 20.611292 18.398438 21.278025 18.398438 22 C 18.398438 23.88856 16.8859 25.402344 15 25.402344 C 13.1141 25.402344 11.601563 23.88856 11.601562 22 C 11.601562 21.278025 11.822719 20.611292 12.201172 20.0625 C 12.453936 19.695965 12.778007 19.382704 13.152344 19.140625 L 13.384766 19.013672 C 13.519098 18.940282 13.658698 18.87838 13.800781 18.824219 L 13.800781 18.8125 L 13.802734 18.8125 L 13.802734 17.144531 L 13.800781 17.144531 L 13.800781 16 L 13.802734 16 L 13.802734 5.75 C 13.802727 5.1153651 14.318415 4.5999321 15 4.5996094 z M 15 9.5996094 A 0.40000001 0.40000001 0 0 0 14.599609 10 L 14.599609 19.841797 A 2.2 2.1999998 0 0 0 12.800781 22 A 2.2 2.1999998 0 0 0 15 24.199219 A 2.2 2.1999998 0 0 0 17.199219 22 A 2.2 2.1999998 0 0 0 15.400391 19.837891 L 15.400391 10 A 0.40000001 0.40000001 0 0 0 15 9.5996094 z " /><g
     id="g1904"
     transform="matrix(1.1146142,0,0,1.1097339,-9.2163325,1.7407188)"
     style="stroke-width:0.899142;fill:#000000;stroke:none" /></g></svg>
