<?xml version="1.0" encoding="UTF-8" standalone="no"?>
<!-- Generator: Adobe Illustrator 22.0.1, SVG Export Plug-In . SVG Version: 6.00 Build 0)  -->

<svg
   version="1.1"
   id="Layer_1"
   x="0px"
   y="0px"
   viewBox="0 0 30 30"
   xml:space="preserve"
   sodipodi:docname="ti-15-b.svg"
   inkscape:version="1.2.1 (9c6d41e4, 2022-07-14)"
   inkscape:export-filename="ti-14.svg"
   inkscape:export-xdpi="96"
   inkscape:export-ydpi="96"
   width="30"
   height="30"
   xmlns:inkscape="http://www.inkscape.org/namespaces/inkscape"
   xmlns:sodipodi="http://sodipodi.sourceforge.net/DTD/sodipodi-0.dtd"
   xmlns="http://www.w3.org/2000/svg"
   xmlns:svg="http://www.w3.org/2000/svg"><defs
   id="defs134" /><sodipodi:namedview
   id="namedview132"
   pagecolor="#ffffff"
   bordercolor="#666666"
   borderopacity="1.0"
   inkscape:showpageshadow="2"
   inkscape:pageopacity="0.0"
   inkscape:pagecheckerboard="0"
   inkscape:deskcolor="#d1d1d1"
   showgrid="true"
   inkscape:zoom="8.9317968"
   inkscape:cx="15.842277"
   inkscape:cy="24.687082"
   inkscape:window-width="1280"
   inkscape:window-height="687"
   inkscape:window-x="0"
   inkscape:window-y="23"
   inkscape:window-maximized="1"
   inkscape:current-layer="g2254"
   showguides="true"><inkscape:grid
     type="xygrid"
     id="grid726"
     originx="0"
     originy="0" /><sodipodi:guide
     position="0.066666667,0.33333"
     orientation="0,-1"
     id="guide728"
     inkscape:locked="false" /></sodipodi:namedview>

<g
   id="g2254"
   style="fill:#000000;stroke:none"><path
     id="path2247"
     style="color:#000000;fill:#000000;stroke-linecap:round;-inkscape-stroke:none;stroke:none"
     d="M 13.291016 11.080078 L 12.03125 11.623047 C 9.2875424 12.806244 7.5043417 15.510089 7.5 18.498047 L 7.5 18.5 L 7.5 18.501953 C 7.5019575 19.888623 7.8896066 21.235574 8.6015625 22.400391 L 10.582031 22.400391 C 9.6323529 21.327261 9.1045436 19.942285 9.1015625 18.501953 L 9.1015625 18.5 L 9.1015625 18.498047 C 9.1056725 16.556258 10.091218 14.814267 11.638672 13.726562 C 11.961074 17.863456 14.780085 21.233203 18.673828 22.400391 L 21.410156 22.400391 L 22.019531 21.466797 L 20.703125 21.339844 C 16.393907 20.928743 13.112771 17.328561 13.101562 13 L 13.101562 12.998047 C 13.109262 12.812591 13.122598 12.628017 13.142578 12.443359 L 13.291016 11.080078 z " /></g></svg>
