<?xml version="1.0" encoding="UTF-8" standalone="no"?>
<!-- Generator: Adobe Illustrator 22.0.1, SVG Export Plug-In . SVG Version: 6.00 Build 0)  -->

<svg
   version="1.1"
   id="Layer_1"
   x="0px"
   y="0px"
   viewBox="0 0 30 30"
   xml:space="preserve"
   sodipodi:docname="ti-16-b.svg"
   inkscape:version="1.2.1 (9c6d41e4, 2022-07-14)"
   inkscape:export-filename="ti-16.svg"
   inkscape:export-xdpi="96"
   inkscape:export-ydpi="96"
   width="30"
   height="30"
   xmlns:inkscape="http://www.inkscape.org/namespaces/inkscape"
   xmlns:sodipodi="http://sodipodi.sourceforge.net/DTD/sodipodi-0.dtd"
   xmlns="http://www.w3.org/2000/svg"
   xmlns:svg="http://www.w3.org/2000/svg"><defs
   id="defs134" /><sodipodi:namedview
   id="namedview132"
   pagecolor="#ffffff"
   bordercolor="#666666"
   borderopacity="1.0"
   inkscape:showpageshadow="2"
   inkscape:pageopacity="0.0"
   inkscape:pagecheckerboard="0"
   inkscape:deskcolor="#d1d1d1"
   showgrid="true"
   inkscape:zoom="7.8666667"
   inkscape:cx="7.0550847"
   inkscape:cy="15"
   inkscape:window-width="1280"
   inkscape:window-height="456"
   inkscape:window-x="0"
   inkscape:window-y="23"
   inkscape:window-maximized="0"
   inkscape:current-layer="g2231"
   showguides="true"><inkscape:grid
     type="xygrid"
     id="grid726"
     originx="0"
     originy="0" /><sodipodi:guide
     position="0.066666667,0.33333"
     orientation="0,-1"
     id="guide728"
     inkscape:locked="false" /></sodipodi:namedview>

<g
   id="g2231"
   style="fill:#000000;stroke:none"><path
     style="color:#000000;fill:#000000;stroke-linecap:round;-inkscape-stroke:none;stroke:none"
     d="M 13.291016,7.0800781 12.03125,7.6230469 C 9.2875316,8.8062454 7.5043415,11.512036 7.5,14.5 c 4.815e-4,4.13198 3.36802,7.499518 7.5,7.5 2.544292,1.35e-4 4.917505,-1.291061 6.298828,-3.427734 l 0.714844,-1.105469 -1.310547,-0.126953 C 16.39389,16.9287 13.112771,13.328569 13.101563,9 c -2e-6,-6.639e-4 10e-7,-0.00129 0,-0.00195 0.0077,-0.184913 0.0211,-0.3706824 0.04101,-0.5546875 z M 11.638672,9.7265625 C 11.97211,14.007219 14.980311,17.458898 19.085937,18.509766 17.989011,19.621332 16.595236,20.400475 15,20.400391 11.733258,20.40001 9.1030166,17.768435 9.1015625,14.501953 V 14.5 c 0.00347,-1.942557 0.9891275,-3.685362 2.5371095,-4.7734375 z"
     id="path2224" /></g></svg>
