<?xml version="1.0" encoding="UTF-8" standalone="no"?>
<!-- Generator: Adobe Illustrator 22.0.1, SVG Export Plug-In . SVG Version: 6.00 Build 0)  -->

<svg
   version="1.1"
   id="Layer_1"
   x="0px"
   y="0px"
   viewBox="0 0 30 30"
   xml:space="preserve"
   sodipodi:docname="ti-17-b.svg"
   inkscape:version="1.2.1 (9c6d41e4, 2022-07-14)"
   inkscape:export-filename="ti-16.svg"
   inkscape:export-xdpi="96"
   inkscape:export-ydpi="96"
   width="30"
   height="30"
   xmlns:inkscape="http://www.inkscape.org/namespaces/inkscape"
   xmlns:sodipodi="http://sodipodi.sourceforge.net/DTD/sodipodi-0.dtd"
   xmlns="http://www.w3.org/2000/svg"
   xmlns:svg="http://www.w3.org/2000/svg"><defs
   id="defs134" /><sodipodi:namedview
   id="namedview132"
   pagecolor="#ffffff"
   bordercolor="#666666"
   borderopacity="1.0"
   inkscape:showpageshadow="2"
   inkscape:pageopacity="0.0"
   inkscape:pagecheckerboard="0"
   inkscape:deskcolor="#d1d1d1"
   showgrid="true"
   inkscape:zoom="7.8666667"
   inkscape:cx="7.0550847"
   inkscape:cy="15"
   inkscape:window-width="1280"
   inkscape:window-height="456"
   inkscape:window-x="0"
   inkscape:window-y="23"
   inkscape:window-maximized="0"
   inkscape:current-layer="g2214"
   showguides="true"><inkscape:grid
     type="xygrid"
     id="grid726"
     originx="0"
     originy="0" /><sodipodi:guide
     position="0.066666667,0.33333"
     orientation="0,-1"
     id="guide728"
     inkscape:locked="false" /></sodipodi:namedview>

<g
   id="g2214"
   style="fill:#000000;stroke:none"><path
     style="color:#000000;fill:#000000;stroke-linecap:round;-inkscape-stroke:none;stroke:none"
     d="M 13.291016,3.0800781 12.03125,3.6230469 C 9.2875318,4.8062453 7.5043417,7.5100828 7.5,10.498047 V 10.5 c 4.815e-4,4.13198 3.36802,7.499518 7.5,7.5 2.544292,1.35e-4 4.917505,-1.293015 6.298828,-3.429687 l 0.714844,-1.105469 -1.310547,-0.125 C 16.39389,12.9287 13.112772,9.3285683 13.101563,5 c -2e-6,-6.639e-4 10e-7,-0.00129 0,-0.00195 0.0077,-0.1855281 0.02103,-0.3700723 0.04101,-0.5546875 z M 11.638672,5.7265625 C 11.972264,10.007047 14.980435,13.45893 19.085937,14.509766 17.989011,15.621332 16.595236,16.398522 15,16.398437 11.733258,16.398057 9.1030166,13.768435 9.1015625,10.501953 V 10.5 C 9.1050288,8.5574422 10.090689,6.8146387 11.638672,5.7265625 Z"
     id="path2207" /></g></svg>
