<?xml version="1.0" encoding="UTF-8" standalone="no"?>
<!-- Generator: Adobe Illustrator 22.0.1, SVG Export Plug-In . SVG Version: 6.00 Build 0)  -->

<svg
   version="1.1"
   id="Layer_1"
   x="0px"
   y="0px"
   viewBox="0 0 30 30"
   xml:space="preserve"
   sodipodi:docname="ti-3-b.svg"
   inkscape:version="1.2.1 (9c6d41e4, 2022-07-14)"
   inkscape:export-filename="ti-2.svg"
   inkscape:export-xdpi="96"
   inkscape:export-ydpi="96"
   width="30"
   height="30"
   xmlns:inkscape="http://www.inkscape.org/namespaces/inkscape"
   xmlns:sodipodi="http://sodipodi.sourceforge.net/DTD/sodipodi-0.dtd"
   xmlns="http://www.w3.org/2000/svg"
   xmlns:svg="http://www.w3.org/2000/svg"><defs
   id="defs134" /><sodipodi:namedview
   id="namedview132"
   pagecolor="#ffffff"
   bordercolor="#666666"
   borderopacity="1.0"
   inkscape:showpageshadow="2"
   inkscape:pageopacity="0.0"
   inkscape:pagecheckerboard="0"
   inkscape:deskcolor="#d1d1d1"
   showgrid="true"
   inkscape:zoom="8.4256992"
   inkscape:cx="19.286233"
   inkscape:cy="15.191618"
   inkscape:window-width="1280"
   inkscape:window-height="456"
   inkscape:window-x="0"
   inkscape:window-y="23"
   inkscape:window-maximized="0"
   inkscape:current-layer="g1801"
   showguides="true"><inkscape:grid
     type="xygrid"
     id="grid726"
     originx="0"
     originy="0" /><sodipodi:guide
     position="0.066666667,0.33333"
     orientation="0,-1"
     id="guide728"
     inkscape:locked="false" /></sodipodi:namedview>

<g
   id="g1801"
   style="stroke:none;fill:#000000"><path
     id="path1794"
     style="color:#000000;fill:#000000;stroke:none;stroke-linecap:round;-inkscape-stroke:none"
     d="M 15 11 C 10.868028 11.000481 7.5004815 14.368028 7.5 18.5 L 7.5 18.501953 C 7.5019575 19.888623 7.8896066 21.235574 8.6015625 22.400391 L 10.582031 22.400391 C 9.6315361 21.326339 9.1035945 19.939747 9.1015625 18.498047 C 9.1030165 15.23157 11.733264 12.601942 15 12.601562 C 18.267403 12.601942 20.898058 15.232597 20.898438 18.5 C 20.895926 19.940985 20.367986 21.326898 19.417969 22.400391 L 21.398438 22.400391 C 22.110394 21.235575 22.498047 19.888624 22.5 18.501953 L 22.5 18.5 C 22.499519 14.368028 19.131972 11.000481 15 11 z " /></g></svg>
