<?xml version="1.0" encoding="UTF-8" standalone="no"?>
<!-- Generator: Adobe Illustrator 22.0.1, SVG Export Plug-In . SVG Version: 6.00 Build 0)  -->

<svg
   version="1.1"
   id="Layer_1"
   x="0px"
   y="0px"
   viewBox="0 0 30 30"
   xml:space="preserve"
   width="30"
   height="30"
   sodipodi:docname="few_clouds-s.svg"
   inkscape:version="1.2.1 (9c6d41e4, 2022-07-14)"
   xmlns:inkscape="http://www.inkscape.org/namespaces/inkscape"
   xmlns:sodipodi="http://sodipodi.sourceforge.net/DTD/sodipodi-0.dtd"
   xmlns="http://www.w3.org/2000/svg"
   xmlns:svg="http://www.w3.org/2000/svg"><sodipodi:namedview
   id="namedview12689"
   pagecolor="#ffffff"
   bordercolor="#666666"
   borderopacity="1.0"
   inkscape:showpageshadow="2"
   inkscape:pageopacity="0.0"
   inkscape:pagecheckerboard="0"
   inkscape:deskcolor="#d1d1d1"
   showgrid="false"
   inkscape:zoom="10.751298"
   inkscape:cx="22.183369"
   inkscape:cy="11.998552"
   inkscape:window-width="1280"
   inkscape:window-height="456"
   inkscape:window-x="0"
   inkscape:window-y="23"
   inkscape:window-maximized="0"
   inkscape:current-layer="g2566" /><defs
   id="defs134" />

<g
   id="g2566"
   style="stroke:none;fill:#000000"><path
     style="color:#000000;stroke-linecap:round;-inkscape-stroke:none"
     d="M 24.992187,10.199219 A 0.80000001,0.80000001 0 0 0 24.191406,11 a 0.80000001,0.80000001 0 0 0 0.800781,0.800781 h 2.207032 A 0.80000001,0.80000001 0 0 0 28,11 0.80000001,0.80000001 0 0 0 27.199219,10.199219 Z"
     id="path3342" /><path
     style="color:#000000;stroke-linecap:round"
     d="m 23.236328,14.4375 a 0.80000001,0.80000001 0 0 0 -0.564453,0.234375 0.80000001,0.80000001 0 0 0 0,1.130859 l 1.560547,1.560547 a 0.80000001,0.80000001 0 0 0 1.130859,0 0.80000001,0.80000001 0 0 0 0,-1.130859 L 23.802734,14.671875 A 0.80000001,0.80000001 0 0 0 23.236328,14.4375 Z"
     id="path3707" /><path
     style="color:#000000;stroke-linecap:round"
     d="m 12.636719,4.6367187 a 0.80000001,0.80000001 0 0 0 0,1.1308594 l 1.560547,1.5605469 a 0.80000001,0.80000001 0 0 0 1.130859,0 0.80000001,0.80000001 0 0 0 0,-1.1308594 L 13.767578,4.6367187 a 0.80000001,0.80000001 0 0 0 -1.130859,0 z"
     id="path3735" /><path
     style="color:#000000;stroke-linecap:round"
     d="M 19,2 A 0.80000001,0.80000001 0 0 0 18.199219,2.8007813 V 5.0078125 A 0.80000001,0.80000001 0 0 0 19,5.8085937 0.80000001,0.80000001 0 0 0 19.800781,5.0078125 V 2.8007813 A 0.80000001,0.80000001 0 0 0 19,2 Z"
     id="path3737" /><path
     style="color:#000000;stroke-linecap:round"
     d="m 24.798828,4.4023437 a 0.80000001,0.80000001 0 0 0 -0.566406,0.234375 l -1.560547,1.5605469 a 0.80000001,0.80000001 0 0 0 0,1.1308594 0.80000001,0.80000001 0 0 0 1.130859,0 l 1.560547,-1.5605469 a 0.80000001,0.80000001 0 0 0 0,-1.1308594 0.80000001,0.80000001 0 0 0 -0.564453,-0.234375 z"
     id="path3739" /><path
     id="path15009"
     style="color:#000000;stroke-linecap:round;stroke-linejoin:round"
     d="M 19 6.6054688 C 17.327859 6.6054688 15.872838 7.5545237 15.130859 8.9375 C 15.244425 9.0179996 15.355151 9.1017744 15.462891 9.1914062 C 15.799184 9.4711784 16.086286 9.8069989 16.326172 10.1875 C 16.67122 9.0362579 17.73047 8.2050781 19 8.2050781 C 20.553318 8.2050781 21.794922 9.4466809 21.794922 11 C 21.794922 11.982348 21.295124 12.836206 20.537109 13.333984 C 20.832587 13.535641 21.098043 13.766496 21.328125 14.023438 C 21.457081 14.167447 21.575495 14.318123 21.683594 14.474609 C 22.722303 13.66905 23.394531 12.40914 23.394531 11 C 23.394531 8.5819792 21.418022 6.6054688 19 6.6054688 z " /></g></svg>
