<?xml version="1.0" encoding="UTF-8" standalone="no"?>
<!-- Generator: Adobe Illustrator 22.0.1, SVG Export Plug-In . SVG Version: 6.00 Build 0)  -->

<svg
   version="1.1"
   id="Layer_1"
   x="0px"
   y="0px"
   viewBox="0 0 30 30"
   xml:space="preserve"
   sodipodi:docname="scattered_clouds-s.svg"
   inkscape:version="1.2.1 (9c6d41e4, 2022-07-14)"
   inkscape:export-filename="ti-6.svg"
   inkscape:export-xdpi="96"
   inkscape:export-ydpi="96"
   width="30"
   height="30"
   xmlns:inkscape="http://www.inkscape.org/namespaces/inkscape"
   xmlns:sodipodi="http://sodipodi.sourceforge.net/DTD/sodipodi-0.dtd"
   xmlns="http://www.w3.org/2000/svg"
   xmlns:svg="http://www.w3.org/2000/svg"><defs
   id="defs134" /><sodipodi:namedview
   id="namedview132"
   pagecolor="#ffffff"
   bordercolor="#666666"
   borderopacity="1.0"
   inkscape:showpageshadow="2"
   inkscape:pageopacity="0.0"
   inkscape:pagecheckerboard="0"
   inkscape:deskcolor="#d1d1d1"
   showgrid="true"
   inkscape:zoom="11.193447"
   inkscape:cx="22.557841"
   inkscape:cy="10.809896"
   inkscape:window-width="1280"
   inkscape:window-height="456"
   inkscape:window-x="0"
   inkscape:window-y="23"
   inkscape:window-maximized="0"
   inkscape:current-layer="g2566"
   showguides="true"><inkscape:grid
     type="xygrid"
     id="grid726"
     originx="0"
     originy="0" /><sodipodi:guide
     position="0.066666667,0.33333"
     orientation="0,-1"
     id="guide728"
     inkscape:locked="false" /></sodipodi:namedview>

<g
   id="g2566"
   style="stroke:none;fill:#000000"><path
     style="color:#000000;stroke-linecap:round;-inkscape-stroke:none"
     d="M 24.992187,10.199219 A 0.80000001,0.80000001 0 0 0 24.191406,11 a 0.80000001,0.80000001 0 0 0 0.800781,0.800781 h 2.207032 A 0.80000001,0.80000001 0 0 0 28,11 0.80000001,0.80000001 0 0 0 27.199219,10.199219 Z"
     id="path3342" /><path
     style="color:#000000;stroke-linecap:round"
     d="m 23.236328,14.4375 a 0.80000001,0.80000001 0 0 0 -0.564453,0.234375 0.80000001,0.80000001 0 0 0 0,1.130859 l 1.560547,1.560547 a 0.80000001,0.80000001 0 0 0 1.130859,0 0.80000001,0.80000001 0 0 0 0,-1.130859 L 23.802734,14.671875 A 0.80000001,0.80000001 0 0 0 23.236328,14.4375 Z"
     id="path3707" /><path
     style="color:#000000;stroke-linecap:round"
     d="m 12.636719,4.6367187 a 0.80000001,0.80000001 0 0 0 0,1.1308594 l 1.560547,1.5605469 a 0.80000001,0.80000001 0 0 0 1.130859,0 0.80000001,0.80000001 0 0 0 0,-1.1308594 L 13.767578,4.6367187 a 0.80000001,0.80000001 0 0 0 -1.130859,0 z"
     id="path3735" /><path
     style="color:#000000;stroke-linecap:round"
     d="M 19,2 A 0.80000001,0.80000001 0 0 0 18.199219,2.8007813 V 5.0078125 A 0.80000001,0.80000001 0 0 0 19,5.8085937 0.80000001,0.80000001 0 0 0 19.800781,5.0078125 V 2.8007813 A 0.80000001,0.80000001 0 0 0 19,2 Z"
     id="path3737" /><path
     style="color:#000000;stroke-linecap:round"
     d="m 24.798828,4.4023437 a 0.80000001,0.80000001 0 0 0 -0.566406,0.234375 l -1.560547,1.5605469 a 0.80000001,0.80000001 0 0 0 0,1.1308594 0.80000001,0.80000001 0 0 0 1.130859,0 l 1.560547,-1.5605469 a 0.80000001,0.80000001 0 0 0 0,-1.1308594 0.80000001,0.80000001 0 0 0 -0.564453,-0.234375 z"
     id="path3739" /><path
     id="path4804"
     style="color:#000000;stroke-linecap:round;stroke-linejoin:round"
     d="m 19,6.6054688 c -1.826537,0 -3.399496,1.1286673 -4.060547,2.7226562 0.189476,0.1333657 0.372642,0.2772042 0.546875,0.4335938 0.282643,0.2536982 0.530203,0.5474432 0.744141,0.8730472 C 16.407703,9.2570103 17.570902,8.2050781 19,8.2050781 c 1.55332,0 2.794922,1.2416012 2.794922,2.7949219 0,1.34067 -0.925771,2.44624 -2.177734,2.724609 0.463934,0.206382 0.902503,0.473021 1.298828,0.802735 0.100481,0.08359 0.195454,0.174176 0.287109,0.267578 C 22.509656,14.031298 23.394531,12.615351 23.394531,11 23.394531,8.5819768 21.418024,6.6054688 19,6.6054688 Z"
     sodipodi:nodetypes="scscsscscss" /></g></svg>
