<?xml version="1.0" encoding="UTF-8" standalone="no"?>
<!-- Generator: Adobe Illustrator 22.0.1, SVG Export Plug-In . SVG Version: 6.00 Build 0)  -->

<svg
   version="1.1"
   id="Layer_1"
   x="0px"
   y="0px"
   viewBox="0 0 30 30"
   xml:space="preserve"
   sodipodi:docname="shower_rain-s.svg"
   inkscape:version="1.2.1 (9c6d41e4, 2022-07-14)"
   inkscape:export-filename="test.png"
   inkscape:export-xdpi="320"
   inkscape:export-ydpi="320"
   width="30"
   height="30"
   xmlns:inkscape="http://www.inkscape.org/namespaces/inkscape"
   xmlns:sodipodi="http://sodipodi.sourceforge.net/DTD/sodipodi-0.dtd"
   xmlns="http://www.w3.org/2000/svg"
   xmlns:svg="http://www.w3.org/2000/svg"><defs
   id="defs134" /><sodipodi:namedview
   id="namedview132"
   pagecolor="#ffffff"
   bordercolor="#666666"
   borderopacity="1.0"
   inkscape:showpageshadow="2"
   inkscape:pageopacity="0.0"
   inkscape:pagecheckerboard="0"
   inkscape:deskcolor="#d1d1d1"
   showgrid="true"
   inkscape:zoom="9.8887036"
   inkscape:cx="15.421637"
   inkscape:cy="18.404839"
   inkscape:window-width="1280"
   inkscape:window-height="456"
   inkscape:window-x="0"
   inkscape:window-y="23"
   inkscape:window-maximized="0"
   inkscape:current-layer="g2566"
   showguides="true"
   inkscape:lockguides="false"><inkscape:grid
     type="xygrid"
     id="grid726"
     originx="0"
     originy="0" /><sodipodi:guide
     position="5,3.8"
     orientation="0,1"
     id="guide10276"
     inkscape:label=""
     inkscape:locked="false"
     inkscape:color="rgb(255,120,0)" /><sodipodi:guide
     position="5,5.8"
     orientation="0,1"
     id="guide11730"
     inkscape:label=""
     inkscape:locked="false"
     inkscape:color="rgb(255,120,0)" /><sodipodi:guide
     position="5,7.8"
     orientation="0,1"
     id="guide13184"
     inkscape:label=""
     inkscape:locked="false"
     inkscape:color="rgb(255,120,0)" /><sodipodi:guide
     position="5,9.8"
     orientation="0,1"
     id="guide14638"
     inkscape:label=""
     inkscape:locked="false"
     inkscape:color="rgb(255,120,0)" /><sodipodi:guide
     position="5,11.8"
     orientation="0,1"
     id="guide16092"
     inkscape:label=""
     inkscape:locked="false"
     inkscape:color="rgb(255,120,0)" /></sodipodi:namedview>

<g
   id="g2566"
   style="stroke:none;fill:#000000"><path
     style="color:#000000;stroke-linecap:round"
     d="M 24.992187,10.199219 A 0.80000001,0.80000001 0 0 0 24.191406,11 a 0.80000001,0.80000001 0 0 0 0.800781,0.800781 h 2.207032 A 0.80000001,0.80000001 0 0 0 28,11 0.80000001,0.80000001 0 0 0 27.199219,10.199219 Z"
     id="path3342" /><path
     style="color:#000000;stroke-linecap:round;-inkscape-stroke:none"
     d="m 23.236328,14.4375 a 0.80000001,0.80000001 0 0 0 -0.564453,0.234375 0.80000001,0.80000001 0 0 0 0,1.130859 l 1.560547,1.560547 a 0.80000001,0.80000001 0 0 0 1.130859,0 0.80000001,0.80000001 0 0 0 0,-1.130859 L 23.802734,14.671875 A 0.80000001,0.80000001 0 0 0 23.236328,14.4375 Z"
     id="path3707" /><path
     style="color:#000000;stroke-linecap:round"
     d="m 12.636719,4.6367187 a 0.80000001,0.80000001 0 0 0 0,1.1308594 l 1.560547,1.5605469 a 0.80000001,0.80000001 0 0 0 1.130859,0 0.80000001,0.80000001 0 0 0 0,-1.1308594 L 13.767578,4.6367187 a 0.80000001,0.80000001 0 0 0 -1.130859,0 z"
     id="path3735" /><path
     style="color:#000000;stroke-linecap:round"
     d="M 19,2 A 0.80000001,0.80000001 0 0 0 18.199219,2.8007813 V 5.0078125 A 0.80000001,0.80000001 0 0 0 19,5.8085937 0.80000001,0.80000001 0 0 0 19.800781,5.0078125 V 2.8007813 A 0.80000001,0.80000001 0 0 0 19,2 Z"
     id="path3737" /><path
     style="color:#000000;stroke-linecap:round"
     d="m 24.798828,4.4023437 a 0.80000001,0.80000001 0 0 0 -0.566406,0.234375 l -1.560547,1.5605469 a 0.80000001,0.80000001 0 0 0 0,1.1308594 0.80000001,0.80000001 0 0 0 1.130859,0 l 1.560547,-1.5605469 a 0.80000001,0.80000001 0 0 0 0,-1.1308594 0.80000001,0.80000001 0 0 0 -0.564453,-0.234375 z"
     id="path3739" /><path
     id="path4804"
     style="color:#000000;stroke-linecap:round;stroke-linejoin:round;-inkscape-stroke:none"
     d="m 19,6.6054688 c -1.67172,0 -3.132591,0.9459222 -3.875,2.328125 0.115838,0.081858 0.230049,0.1664714 0.339844,0.2578124 0.334902,0.2786151 0.620412,0.613604 0.859375,0.9921878 C 16.670448,9.0338566 17.731413,8.2050781 19,8.2050781 c 1.55332,0 2.794922,1.2416012 2.794922,2.7949219 0,0.981594 -0.496928,1.837968 -1.253906,2.335938 0.293787,0.200992 0.558117,0.431773 0.787109,0.6875 0.128922,0.143972 0.243487,0.296682 0.351563,0.453124 C 22.720532,13.671239 23.394531,12.410841 23.394531,11 23.394531,8.5819768 21.418024,6.6054688 19,6.6054688 Z"
     sodipodi:nodetypes="scscsscscss" /><g
     id="path6045" /><g
     id="path6047" /></g></svg>
