<?xml version="1.0" encoding="UTF-8" standalone="no"?>
<!-- Generator: Adobe Illustrator 22.0.1, SVG Export Plug-In . SVG Version: 6.00 Build 0)  -->

<svg
   version="1.1"
   id="Layer_1"
   x="0px"
   y="0px"
   viewBox="0 0 30 30"
   xml:space="preserve"
   sodipodi:docname="broken_clouds-f.svg"
   inkscape:version="1.2.1 (9c6d41e4, 2022-07-14)"
   inkscape:export-filename="ti-6.svg"
   inkscape:export-xdpi="96"
   inkscape:export-ydpi="96"
   width="30"
   height="30"
   xmlns:inkscape="http://www.inkscape.org/namespaces/inkscape"
   xmlns:sodipodi="http://sodipodi.sourceforge.net/DTD/sodipodi-0.dtd"
   xmlns="http://www.w3.org/2000/svg"
   xmlns:svg="http://www.w3.org/2000/svg"><defs
   id="defs134" /><sodipodi:namedview
   id="namedview132"
   pagecolor="#ffffff"
   bordercolor="#666666"
   borderopacity="1.0"
   inkscape:showpageshadow="2"
   inkscape:pageopacity="0.0"
   inkscape:pagecheckerboard="0"
   inkscape:deskcolor="#d1d1d1"
   showgrid="true"
   inkscape:zoom="12.79472"
   inkscape:cx="11.059249"
   inkscape:cy="13.521202"
   inkscape:window-width="1280"
   inkscape:window-height="456"
   inkscape:window-x="0"
   inkscape:window-y="23"
   inkscape:window-maximized="0"
   inkscape:current-layer="g2566"
   showguides="true"><inkscape:grid
     type="xygrid"
     id="grid726"
     originx="0"
     originy="0" /><sodipodi:guide
     position="0.066666667,0.33333"
     orientation="0,-1"
     id="guide728"
     inkscape:locked="false" /></sodipodi:namedview>

<g
   id="g2566"
   style="stroke:none;fill:#000000"><path
     style="color:#000000;fill:#000000;-inkscape-stroke:none;stroke:none"
     d="M 11.529297,7.8359375 C 10.117642,7.8338182 8.6942791,8.2656006 7.5917969,9.1816406 6.6415006,9.9712311 6.0572256,11.197155 5.8867187,12.638672 4.7442758,12.804872 3.7526265,13.274444 3.1132813,14.044922 2.3459223,14.96967 1.9861994,16.159693 2,17.339844 c 0.013801,1.180151 0.4034917,2.373786 1.2207031,3.294922 0.8172114,0.921135 2.0757242,1.529296 3.625,1.529296 H 17.685547 c 1.553862,0 2.820087,-0.606262 3.644531,-1.527343 0.824444,-0.921082 1.219427,-2.119099 1.21875,-3.306641 -6.76e-4,-1.187542 -0.396193,-2.385876 -1.220703,-3.30664 -0.82451,-0.920765 -2.090677,-1.527344 -3.642578,-1.527344 H 17.136719 C 16.937143,11.129252 16.380398,9.9530817 15.464844,9.1914063 14.363254,8.2749623 12.940952,7.8380568 11.529297,7.8359375 Z m -0.002,1.5996094 c 1.079093,0.00162 2.147592,0.3467263 2.914062,0.9843751 0.766471,0.637649 1.267578,1.541831 1.267578,2.876953 v 0.798828 H 17.6875 c 1.153168,5.2e-4 1.919477,0.402556 2.449219,0.994141 0.530084,0.591967 0.812027,1.4108 0.8125,2.240234 4.72e-4,0.829434 -0.280971,1.648584 -0.810547,2.240234 -0.529577,0.591651 -1.296074,0.994141 -2.453125,0.994141 H 6.8457031 c -1.1508847,0 -1.9028824,-0.40059 -2.4277344,-0.992187 C 3.8931168,18.980668 3.6093952,18.157138 3.5996094,17.320312 3.5898236,16.483487 3.8558387,15.654391 4.34375,15.066406 4.8316613,14.478422 5.5152396,14.095703 6.546875,14.095703 h 0.7988281 v -0.800781 c 0,-1.343465 0.5039529,-2.246702 1.2695313,-2.882813 0.7655783,-0.63611 1.8330166,-0.9781822 2.9121096,-0.9765621 z"
     id="path4686" /></g></svg>
