<?xml version="1.0" encoding="UTF-8" standalone="no"?>
<!-- Generator: Adobe Illustrator 22.0.1, SVG Export Plug-In . SVG Version: 6.00 Build 0)  -->

<svg
   version="1.1"
   id="Layer_1"
   x="0px"
   y="0px"
   viewBox="0 0 30 30"
   xml:space="preserve"
   sodipodi:docname="clear_sky-f.svg"
   inkscape:version="1.2.1 (9c6d41e4, 2022-07-14)"
   inkscape:export-filename="ti-6.svg"
   inkscape:export-xdpi="96"
   inkscape:export-ydpi="96"
   width="30"
   height="30"
   xmlns:inkscape="http://www.inkscape.org/namespaces/inkscape"
   xmlns:sodipodi="http://sodipodi.sourceforge.net/DTD/sodipodi-0.dtd"
   xmlns="http://www.w3.org/2000/svg"
   xmlns:svg="http://www.w3.org/2000/svg"><defs
   id="defs134" /><sodipodi:namedview
   id="namedview132"
   pagecolor="#ffffff"
   bordercolor="#666666"
   borderopacity="1.0"
   inkscape:showpageshadow="2"
   inkscape:pageopacity="0.0"
   inkscape:pagecheckerboard="0"
   inkscape:deskcolor="#d1d1d1"
   showgrid="true"
   inkscape:zoom="9.9722379"
   inkscape:cx="8.9749162"
   inkscape:cy="14.038975"
   inkscape:window-width="1280"
   inkscape:window-height="456"
   inkscape:window-x="0"
   inkscape:window-y="23"
   inkscape:window-maximized="0"
   inkscape:current-layer="g4830"
   showguides="true"><inkscape:grid
     type="xygrid"
     id="grid726"
     originx="0"
     originy="0" /><sodipodi:guide
     position="0.066666667,0.33333"
     orientation="0,-1"
     id="guide728"
     inkscape:locked="false" /></sodipodi:namedview>

<g
   id="g2566"
   style="stroke:none;fill:#000000"><g
     id="g4830"
     transform="matrix(0.63076919,0,0,0.63076919,5.5384623,5.5384623)"
     style="fill:#000000;stroke:none;stroke-width:1.58537"><path
       style="color:#000000;stroke-linecap:round;stroke-linejoin:round"
       d="m 15,8.03125 c -3.833457,0 -6.96875,3.135293 -6.96875,6.96875 0,3.833457 3.135293,6.96875 6.96875,6.96875 3.833457,0 6.96875,-3.135293 6.96875,-6.96875 0,-3.833457 -3.135293,-6.96875 -6.96875,-6.96875 z m 0,2.537109 c 2.462583,0 4.431641,1.969058 4.431641,4.431641 0,2.462583 -1.969058,4.431641 -4.431641,4.431641 -2.462583,0 -4.431641,-1.969058 -4.431641,-4.431641 0,-2.462583 1.969058,-4.431641 4.431641,-4.431641 z"
       id="path4804" /></g></g></svg>
