<?xml version="1.0" encoding="UTF-8" standalone="no"?>
<!-- Generator: Adobe Illustrator 22.0.1, SVG Export Plug-In . SVG Version: 6.00 Build 0)  -->

<svg
   version="1.1"
   id="Layer_1"
   x="0px"
   y="0px"
   viewBox="0 0 30 30"
   xml:space="preserve"
   width="30"
   height="30"
   sodipodi:docname="few_clouds-f.svg"
   inkscape:version="1.2.1 (9c6d41e4, 2022-07-14)"
   xmlns:inkscape="http://www.inkscape.org/namespaces/inkscape"
   xmlns:sodipodi="http://sodipodi.sourceforge.net/DTD/sodipodi-0.dtd"
   xmlns="http://www.w3.org/2000/svg"
   xmlns:svg="http://www.w3.org/2000/svg"><sodipodi:namedview
   id="namedview12689"
   pagecolor="#ffffff"
   bordercolor="#666666"
   borderopacity="1.0"
   inkscape:showpageshadow="2"
   inkscape:pageopacity="0.0"
   inkscape:pagecheckerboard="0"
   inkscape:deskcolor="#d1d1d1"
   showgrid="false"
   inkscape:zoom="10.751298"
   inkscape:cx="22.183369"
   inkscape:cy="11.998552"
   inkscape:window-width="1280"
   inkscape:window-height="456"
   inkscape:window-x="0"
   inkscape:window-y="23"
   inkscape:window-maximized="0"
   inkscape:current-layer="g2566" /><defs
   id="defs134" />

<g
   id="g2566"
   style="stroke:none;fill:#000000"><path
     style="color:#000000;fill:#000000"
     d="M 11.527726,7.8359375 C 10.116071,7.8338182 8.6946614,8.2656005 7.5921791,9.1816406 6.6419084,9.9712099 6.0576308,11.197208 5.887101,12.638672 c -1.1430259,0.165963 -2.1338509,0.635481 -2.7734375,1.40625 -0.767359,0.924748 -1.1270819,2.114771 -1.1132813,3.294922 0.013801,1.180151 0.4034918,2.373786 1.2207032,3.294922 0.8172114,0.921135 2.0757242,1.529296 3.625,1.529296 H 17.685929 c 1.553862,0 2.820087,-0.606262 3.644531,-1.527343 0.824444,-0.921082 1.219427,-2.119099 1.21875,-3.306641 -6.76e-4,-1.187542 -0.396192,-2.385876 -1.220703,-3.30664 -0.82451,-0.920765 -2.090677,-1.527344 -3.642578,-1.527344 H 17.137101 C 16.93755,11.129187 16.378858,9.953108 15.463273,9.1914063 14.361683,8.2749622 12.939381,7.8380568 11.527726,7.8359375 Z m -0.002,1.5996094 c 1.079093,0.00162 2.147592,0.3467263 2.914062,0.9843751 0.766471,0.637649 1.269532,1.541831 1.269532,2.876953 v 0.798828 h 1.976562 c 1.154416,0 1.919134,0.402173 2.449219,0.994141 0.530085,0.591967 0.81398,1.4108 0.814453,2.240234 4.73e-4,0.829434 -0.28097,1.648584 -0.810547,2.240234 -0.529576,0.591651 -1.296073,0.994141 -2.453125,0.994141 H 6.8460854 c -1.1508848,0 -1.9028824,-0.40059 -2.4277344,-0.992187 C 3.893499,18.980668 3.6097774,18.157138 3.5999916,17.320312 3.5902058,16.483487 3.856221,15.654391 4.3441323,15.066406 4.8320435,14.478422 5.5136687,14.095703 6.5453041,14.095703 h 0.8007813 v -0.800781 c 0,-1.343465 0.5019997,-2.246702 1.2675781,-2.882813 C 9.3792419,9.7759989 10.44668,9.4339268 11.525773,9.4355469 Z"
     id="path4686" /></g></svg>
