<?xml version="1.0" encoding="UTF-8" standalone="no"?>
<!-- Generator: Adobe Illustrator 22.0.1, SVG Export Plug-In . SVG Version: 6.00 Build 0)  -->

<svg
   version="1.1"
   id="Layer_1"
   x="0px"
   y="0px"
   viewBox="0 0 30 30"
   xml:space="preserve"
   sodipodi:docname="mist-f.svg"
   inkscape:version="1.2.1 (9c6d41e4, 2022-07-14)"
   inkscape:export-filename="test.png"
   inkscape:export-xdpi="320"
   inkscape:export-ydpi="320"
   width="30"
   height="30"
   xmlns:inkscape="http://www.inkscape.org/namespaces/inkscape"
   xmlns:sodipodi="http://sodipodi.sourceforge.net/DTD/sodipodi-0.dtd"
   xmlns="http://www.w3.org/2000/svg"
   xmlns:svg="http://www.w3.org/2000/svg"><defs
   id="defs134" /><sodipodi:namedview
   id="namedview132"
   pagecolor="#ffffff"
   bordercolor="#666666"
   borderopacity="1.0"
   inkscape:showpageshadow="2"
   inkscape:pageopacity="0.0"
   inkscape:pagecheckerboard="0"
   inkscape:deskcolor="#d1d1d1"
   showgrid="true"
   inkscape:zoom="10.13377"
   inkscape:cx="11.397535"
   inkscape:cy="17.367673"
   inkscape:window-width="1280"
   inkscape:window-height="456"
   inkscape:window-x="0"
   inkscape:window-y="23"
   inkscape:window-maximized="0"
   inkscape:current-layer="g38671"
   showguides="true"
   inkscape:lockguides="false"><inkscape:grid
     type="xygrid"
     id="grid726"
     originx="0"
     originy="0" /></sodipodi:namedview>

<g
   id="g2566"
   style="stroke:none;fill:#000000"><g
     id="g38671"
     transform="translate(2.7257767)"><path
       id="path4686"
       style="color:#000000;fill:#000000;-inkscape-stroke:none;stroke:none"
       d="M 11.530083,7.8359375 C 10.11843,7.8338182 8.6950627,8.2656024 7.5925827,9.1816406 6.6422882,9.9712295 6.0580111,11.197157 5.8875046,12.638672 c -1.1424407,0.1662 -2.1340937,0.635774 -2.7734375,1.40625 -0.7673576,0.924746 -1.1270819,2.114773 -1.1132813,3.294922 0.013801,1.180149 0.4034933,2.373788 1.2207031,3.294922 0.8172098,0.921133 2.0757274,1.529297 3.625,1.529296 H 17.686333 c 1.553858,0 2.820089,-0.606264 3.644531,-1.527343 0.808167,-0.902898 1.202135,-2.071935 1.216797,-3.236328 h -1.59961 c -0.01493,0.805373 -0.293914,1.594914 -0.808593,2.169921 -0.529577,0.591651 -1.296076,0.994141 -2.453125,0.994141 H 6.8464889 c -1.1508823,0 -1.9028835,-0.400592 -2.4277343,-0.992187 -0.5248509,-0.591598 -0.8085736,-1.415128 -0.8183594,-2.251954 -0.00979,-0.836823 0.2562303,-1.665921 0.7441406,-2.253906 0.4879103,-0.587982 1.1714916,-0.970703 2.203125,-0.970703 h 0.7988281 v -0.800781 c 0,-1.343463 0.5020013,-2.246702 1.2675781,-2.882813 0.7655769,-0.636108 1.83302,-0.9781822 2.912109,-0.9765621 0.871192,0.00131 1.734939,0.2261732 2.439454,0.6484371 0.290864,-0.4122986 0.769488,-0.6855465 1.304687,-0.6855465 h 0.002 0.417969 C 15.616751,9.3269125 15.542449,9.2569393 15.463676,9.1914062 14.36209,8.2749642 12.941734,7.8380568 11.530083,7.8359375 Z"
       sodipodi:nodetypes="sscssscssccssssssscssscscccs" /></g><g
     id="path6045" /><g
     id="path6047" /></g></svg>
