<?xml version="1.0" encoding="UTF-8" standalone="no"?>
<!-- Generator: Adobe Illustrator 22.0.1, SVG Export Plug-In . SVG Version: 6.00 Build 0)  -->

<svg
   version="1.1"
   id="Layer_1"
   x="0px"
   y="0px"
   viewBox="0 0 30 30"
   xml:space="preserve"
   sodipodi:docname="snow-f.svg"
   inkscape:version="1.2.1 (9c6d41e4, 2022-07-14)"
   inkscape:export-filename="test.png"
   inkscape:export-xdpi="320"
   inkscape:export-ydpi="320"
   width="30"
   height="30"
   xmlns:inkscape="http://www.inkscape.org/namespaces/inkscape"
   xmlns:sodipodi="http://sodipodi.sourceforge.net/DTD/sodipodi-0.dtd"
   xmlns="http://www.w3.org/2000/svg"
   xmlns:svg="http://www.w3.org/2000/svg"><defs
   id="defs134" /><sodipodi:namedview
   id="namedview132"
   pagecolor="#ffffff"
   bordercolor="#666666"
   borderopacity="1.0"
   inkscape:showpageshadow="2"
   inkscape:pageopacity="0.0"
   inkscape:pagecheckerboard="0"
   inkscape:deskcolor="#d1d1d1"
   showgrid="true"
   inkscape:zoom="10.618492"
   inkscape:cx="4.4733282"
   inkscape:cy="16.763209"
   inkscape:window-width="1280"
   inkscape:window-height="456"
   inkscape:window-x="0"
   inkscape:window-y="23"
   inkscape:window-maximized="0"
   inkscape:current-layer="g38671"
   showguides="true"
   inkscape:lockguides="false"><inkscape:grid
     type="xygrid"
     id="grid726"
     originx="0"
     originy="0" /></sodipodi:namedview>

<g
   id="g2566"
   style="stroke:none;fill:#000000"><g
     id="g38671"
     transform="translate(2.7257767)"><path
       id="path4686-0"
       style="color:#000000;fill:#000000;stroke:none"
       d="M 11.530083 7.8359375 C 10.118429 7.8338182 8.6950638 8.2656015 7.5925827 9.1816406 C 6.6422873 9.9712303 6.0580113 11.197156 5.8875046 12.638672 C 4.7450628 12.804872 3.7534116 13.274445 3.1140671 14.044922 C 2.3467088 14.969669 1.9869852 16.159694 2.0007858 17.339844 C 2.0145868 18.519994 2.4042783 19.713631 3.2214889 20.634766 C 3.8738605 21.370098 4.8078553 21.905529 5.9460983 22.091797 L 5.9460983 20.46875 C 5.2807128 20.316728 4.7922298 19.993235 4.4187546 19.572266 C 3.8939032 18.980668 3.610181 18.157138 3.6003952 17.320312 C 3.5906094 16.483488 3.856625 15.654391 4.3445358 15.066406 C 4.8324466 14.478423 5.5160264 14.095703 6.5476608 14.095703 L 7.3464889 14.095703 L 7.3464889 13.294922 C 7.3464889 11.951458 7.8484894 11.04822 8.614067 10.412109 C 9.3796446 9.776 10.447085 9.4339268 11.526176 9.4355469 C 12.605267 9.4371669 13.675723 9.7822737 14.442192 10.419922 C 15.208662 11.05757 15.70977 11.961754 15.70977 13.296875 L 15.70977 14.095703 L 17.686333 14.095703 C 18.840748 14.095703 19.60742 14.497876 20.137505 15.089844 C 20.667588 15.68181 20.949532 16.500645 20.950005 17.330078 C 20.950477 18.159511 20.669033 18.978663 20.139458 19.570312 C 19.764854 19.988825 19.270374 20.311135 18.604301 20.464844 L 18.604301 22.087891 C 19.739879 21.899744 20.675788 21.368579 21.330864 20.636719 C 22.155307 19.715638 22.550291 18.517619 22.549614 17.330078 C 22.548938 16.142537 22.15342 14.944201 21.328911 14.023438 C 20.504402 13.102673 19.238232 12.496094 17.686333 12.496094 L 17.137505 12.496094 C 16.937954 11.129188 16.379261 9.9531071 15.463676 9.1914062 C 14.362088 8.2749632 12.941736 7.8380568 11.530083 7.8359375 z " /><path
       style="fill:none;stroke:#000000;stroke-width:1.6;stroke-linecap:butt;stroke-linejoin:miter;stroke-dasharray:none;stroke-opacity:1"
       d="M 72.274223,15 V 25"
       id="path43859"
       sodipodi:nodetypes="cc" /></g><g
     id="path6045" /><g
     id="path6047" /></g></svg>
