<?xml version="1.0" encoding="UTF-8" standalone="no"?>
<!-- Generator: Adobe Illustrator 22.0.1, SVG Export Plug-In . SVG Version: 6.00 Build 0)  -->

<svg
   version="1.1"
   id="Layer_1"
   x="0px"
   y="0px"
   viewBox="0 0 30 30"
   xml:space="preserve"
   sodipodi:docname="ti-11.svg"
   inkscape:version="1.2.1 (9c6d41e4, 2022-07-14)"
   inkscape:export-filename="ti-11.svg"
   inkscape:export-xdpi="96"
   inkscape:export-ydpi="96"
   width="30"
   height="30"
   xmlns:inkscape="http://www.inkscape.org/namespaces/inkscape"
   xmlns:sodipodi="http://sodipodi.sourceforge.net/DTD/sodipodi-0.dtd"
   xmlns="http://www.w3.org/2000/svg"
   xmlns:svg="http://www.w3.org/2000/svg"><defs
   id="defs134" /><sodipodi:namedview
   id="namedview132"
   pagecolor="#ffffff"
   bordercolor="#666666"
   borderopacity="1.0"
   inkscape:showpageshadow="2"
   inkscape:pageopacity="0.0"
   inkscape:pagecheckerboard="0"
   inkscape:deskcolor="#d1d1d1"
   showgrid="true"
   inkscape:zoom="25.231331"
   inkscape:cx="15.199357"
   inkscape:cy="22.472061"
   inkscape:window-width="1280"
   inkscape:window-height="456"
   inkscape:window-x="0"
   inkscape:window-y="23"
   inkscape:window-maximized="0"
   inkscape:current-layer="g2053"
   showguides="true"><inkscape:grid
     type="xygrid"
     id="grid726"
     originx="0"
     originy="0" /><sodipodi:guide
     position="0.066666667,0.33333"
     orientation="0,-1"
     id="guide728"
     inkscape:locked="false" /></sodipodi:namedview>

<g
   id="g2053"
   transform="translate(0,0.199219)"
   style="stroke:none;fill:#000000"><path
     style="color:#000000;fill:#000000;stroke:none;stroke-linecap:round;-inkscape-stroke:none"
     d="M 3,25.201172 A 0.80000001,0.80000001 0 0 0 2.1992188,26 0.80000001,0.80000001 0 0 0 3,26.800781 h 8 A 0.80000001,0.80000001 0 0 0 11.800781,26 0.80000001,0.80000001 0 0 0 11,25.201172 Z"
     id="path1993-0" /><path
     style="color:#000000;fill:#000000;stroke:none;stroke-linecap:round;-inkscape-stroke:none"
     d="M 19,25.201172 A 0.80000001,0.80000001 0 0 0 18.199219,26 0.80000001,0.80000001 0 0 0 19,26.800781 h 8 A 0.80000001,0.80000001 0 0 0 27.800781,26 0.80000001,0.80000001 0 0 0 27,25.201172 Z"
     id="path1995-5" /><path
     style="color:#000000;fill:#000000;stroke:none;stroke-linecap:round;-inkscape-stroke:none"
     d="M 4,22.201172 A 0.80000001,0.80000001 0 0 0 3.1992188,23 0.80000001,0.80000001 0 0 0 4,23.800781 h 6.732422 L 15,27 19.267578,23.800781 H 26 A 0.80000001,0.80000001 0 0 0 26.800781,23 0.80000001,0.80000001 0 0 0 26,22.201172 H 18.732422 L 15,25 11.267578,22.201172 Z"
     id="path1997-7" /><path
     id="path2051"
     style="color:#000000;fill:#000000;stroke:none;stroke-linecap:round;-inkscape-stroke:none"
     d="M 15 18.800781 C 12.377402 18.801086 10.0639 20.154417 8.7246094 22.201172 L 10.761719 22.201172 C 11.832405 21.092252 13.331239 20.400585 15 20.40039 C 16.668514 20.400585 18.167508 21.092294 19.238281 22.201172 L 21.275391 22.201172 C 19.936017 20.154668 17.622467 18.801086 15 18.800781 z " /></g></svg>
