<?xml version="1.0" encoding="UTF-8" standalone="no"?>
<!-- Generator: Adobe Illustrator 22.0.1, SVG Export Plug-In . SVG Version: 6.00 Build 0)  -->

<svg
   version="1.1"
   id="Layer_1"
   x="0px"
   y="0px"
   viewBox="0 0 30 30"
   xml:space="preserve"
   sodipodi:docname="ti-15.svg"
   inkscape:version="1.2.1 (9c6d41e4, 2022-07-14)"
   inkscape:export-filename="ti-14.svg"
   inkscape:export-xdpi="96"
   inkscape:export-ydpi="96"
   width="30"
   height="30"
   xmlns:inkscape="http://www.inkscape.org/namespaces/inkscape"
   xmlns:sodipodi="http://sodipodi.sourceforge.net/DTD/sodipodi-0.dtd"
   xmlns="http://www.w3.org/2000/svg"
   xmlns:svg="http://www.w3.org/2000/svg"><defs
   id="defs134" /><sodipodi:namedview
   id="namedview132"
   pagecolor="#ffffff"
   bordercolor="#666666"
   borderopacity="1.0"
   inkscape:showpageshadow="2"
   inkscape:pageopacity="0.0"
   inkscape:pagecheckerboard="0"
   inkscape:deskcolor="#d1d1d1"
   showgrid="true"
   inkscape:zoom="7.8666667"
   inkscape:cx="10.995763"
   inkscape:cy="15"
   inkscape:window-width="1280"
   inkscape:window-height="456"
   inkscape:window-x="0"
   inkscape:window-y="23"
   inkscape:window-maximized="0"
   inkscape:current-layer="Layer_1"
   showguides="true"><inkscape:grid
     type="xygrid"
     id="grid726"
     originx="0"
     originy="0" /><sodipodi:guide
     position="0.066666667,0.33333"
     orientation="0,-1"
     id="guide728"
     inkscape:locked="false" /></sodipodi:namedview>

<g
   id="g2254"
   style="fill:#000000;stroke:none"><path
     style="color:#000000;fill:#000000;stroke-linecap:round;-inkscape-stroke:none;stroke:none"
     d="M 3,22.400391 A 0.80000001,0.80000001 0 0 0 2.1992188,23.199219 0.80000001,0.80000001 0 0 0 3,24 h 8 A 0.80000001,0.80000001 0 0 0 11.800781,23.199219 0.80000001,0.80000001 0 0 0 11,22.400391 Z"
     id="path2241" /><path
     style="color:#000000;fill:#000000;stroke-linecap:round;-inkscape-stroke:none;stroke:none"
     d="M 19,22.400391 A 0.80000001,0.80000001 0 0 0 18.199219,23.199219 0.80000001,0.80000001 0 0 0 19,24 h 8 A 0.80000001,0.80000001 0 0 0 27.800781,23.199219 0.80000001,0.80000001 0 0 0 27,22.400391 Z"
     id="path2243" /><path
     style="color:#000000;fill:#000000;stroke-linecap:round;-inkscape-stroke:none;stroke:none"
     d="m 15,22.199219 -4.267578,3.201172 H 4 A 0.80000001,0.80000001 0 0 0 3.1992188,26.199219 0.80000001,0.80000001 0 0 0 4,27 h 7.267578 L 15,24.199219 18.732422,27 H 26 A 0.80000001,0.80000001 0 0 0 26.800781,26.199219 0.80000001,0.80000001 0 0 0 26,25.400391 h -6.732422 z"
     id="path2245" /><path
     style="color:#000000;fill:#000000;stroke-linecap:round;-inkscape-stroke:none;stroke:none"
     d="M 13.291016,11.080078 12.03125,11.623047 C 9.287537,12.806246 7.5043417,15.510083 7.5,18.498047 v 0.002 0.002 c 0.00278,1.969334 0.7819957,3.858774 2.1660156,5.259766 a 0.80000001,0.80000001 0 0 0 1.1308594,0.0059 0.80000001,0.80000001 0 0 0 0.0059,-1.130859 C 9.7145195,21.535159 9.1047671,20.050279 9.1015625,18.501953 V 18.5 c -1.1e-6,-6.51e-4 9e-7,-0.0013 0,-0.002 0.00411,-1.941793 0.9896535,-3.683777 2.5371095,-4.771484 0.33837,4.341788 3.426395,7.839833 7.621094,8.832031 -0.02252,0.02342 -0.03764,0.05312 -0.06055,0.07617 a 0.80000001,0.80000001 0 0 0 0.0039,1.132812 0.80000001,0.80000001 0 0 0 1.132812,-0.0039 c 0.36036,-0.362631 0.68165,-0.761247 0.960938,-1.189453 l 0.722656,-1.107422 -1.316406,-0.126953 C 16.39389,20.9287 13.112772,17.328569 13.101563,13 c -2e-6,-6.64e-4 10e-7,-0.0013 0,-0.002 0.0077,-0.185456 0.02103,-0.37003 0.04101,-0.554688 z"
     id="path2247" /><path
     style="color:#000000;fill:#000000;stroke-linecap:round;stroke-linejoin:round;-inkscape-stroke:none;stroke:none"
     d="m 23.199219,3 a 0.80008001,0.80008001 0 0 0 -0.714844,0.4414063 c -0.5,0.999999 -0.725317,1.4186768 -0.974609,1.6679687 -0.249292,0.2492919 -0.66797,0.4746099 -1.667969,0.9746094 a 0.80008001,0.80008001 0 0 0 0,1.4316406 c 0.999999,0.4999995 1.418677,0.7253175 1.667969,0.9746094 0.249292,0.2492919 0.47461,0.6679697 0.974609,1.6679686 a 0.80008001,0.80008001 0 0 0 1.431641,0 c 0.499999,-0.9999989 0.725317,-1.4186767 0.974609,-1.6679686 0.249292,-0.2492919 0.66797,-0.4746099 1.667969,-0.9746094 a 0.80008001,0.80008001 0 0 0 0,-1.4316406 C 25.558595,5.5839849 25.139917,5.3586669 24.890625,5.109375 24.641333,4.8600831 24.416015,4.4414053 23.916016,3.4414063 A 0.80008001,0.80008001 0 0 0 23.199219,3 Z m 0,2.3261719 c 0.170818,0.2798071 0.340658,0.6941734 0.560547,0.9140625 0.219889,0.2198891 0.634255,0.3897286 0.914062,0.5605468 C 24.394371,6.9714472 23.979445,7.1396951 23.759766,7.359375 23.539877,7.5792641 23.370037,7.9936304 23.199219,8.2734375 23.028553,7.9939806 22.860305,7.5790549 22.640625,7.359375 22.420945,7.1396951 22.006019,6.9714472 21.726562,6.8007812 22.00637,6.629963 22.420736,6.4601235 22.640625,6.2402344 22.860305,6.0205545 23.028553,5.6056287 23.199219,5.3261719 Z"
     id="path2900-6-5-8" /></g></svg>
