<?xml version="1.0" encoding="UTF-8" standalone="no"?>
<!-- Generator: Adobe Illustrator 22.0.1, SVG Export Plug-In . SVG Version: 6.00 Build 0)  -->

<svg
   version="1.1"
   id="Layer_1"
   x="0px"
   y="0px"
   viewBox="0 0 30 30"
   xml:space="preserve"
   sodipodi:docname="ti-18.svg"
   inkscape:version="1.2.1 (9c6d41e4, 2022-07-14)"
   inkscape:export-filename="ti-18.svg"
   inkscape:export-xdpi="96"
   inkscape:export-ydpi="96"
   width="30"
   height="30"
   xmlns:inkscape="http://www.inkscape.org/namespaces/inkscape"
   xmlns:sodipodi="http://sodipodi.sourceforge.net/DTD/sodipodi-0.dtd"
   xmlns="http://www.w3.org/2000/svg"
   xmlns:svg="http://www.w3.org/2000/svg"><defs
   id="defs134" /><sodipodi:namedview
   id="namedview132"
   pagecolor="#ffffff"
   bordercolor="#666666"
   borderopacity="1.0"
   inkscape:showpageshadow="2"
   inkscape:pageopacity="0.0"
   inkscape:pagecheckerboard="0"
   inkscape:deskcolor="#d1d1d1"
   showgrid="true"
   inkscape:zoom="7.8666667"
   inkscape:cx="10.995763"
   inkscape:cy="15"
   inkscape:window-width="1280"
   inkscape:window-height="456"
   inkscape:window-x="0"
   inkscape:window-y="23"
   inkscape:window-maximized="0"
   inkscape:current-layer="Layer_1"
   showguides="true"><inkscape:grid
     type="xygrid"
     id="grid726"
     originx="0"
     originy="0" /><sodipodi:guide
     position="0.066666667,0.33333"
     orientation="0,-1"
     id="guide728"
     inkscape:locked="false" /></sodipodi:namedview>

<g
   id="g2578"
   style="fill:#000000;stroke:none"><path
     style="color:#000000;fill:#000000;stroke-linecap:round;-inkscape-stroke:none;stroke:none"
     d="M 13.291016,3.0800781 12.03125,3.6230469 C 9.2875318,4.8062453 7.5043417,7.5100828 7.5,10.498047 V 10.5 c 4.815e-4,4.13198 3.36802,7.499518 7.5,7.5 2.544292,1.35e-4 4.917505,-1.293015 6.298828,-3.429687 l 0.714844,-1.105469 -1.310547,-0.125 C 16.39389,12.9287 13.112772,9.3285683 13.101563,5 c -2e-6,-6.639e-4 10e-7,-0.00129 0,-0.00195 0.0077,-0.1855281 0.02103,-0.3700723 0.04101,-0.5546875 z M 11.638672,5.7265625 C 11.972264,10.007047 14.980435,13.45893 19.085937,14.509766 17.989011,15.621332 16.595236,16.398522 15,16.398437 11.733258,16.398057 9.1030166,13.768435 9.1015625,10.501953 V 10.5 C 9.1050288,8.5574422 10.090689,6.8146387 11.638672,5.7265625 Z"
     id="path2576" /><path
     style="color:#000000;fill:#000000;stroke-linecap:round;-inkscape-stroke:none;stroke:none"
     d="M 3,22.400391 A 0.80000001,0.80000001 0 0 0 2.1992188,23.199219 0.80000001,0.80000001 0 0 0 3,24 H 27 A 0.80000001,0.80000001 0 0 0 27.800781,23.199219 0.80000001,0.80000001 0 0 0 27,22.400391 Z"
     id="path2057-4" /><path
     style="color:#000000;fill:#000000;stroke-linecap:round;-inkscape-stroke:none;stroke:none"
     d="M 4,25.400391 A 0.80000001,0.80000001 0 0 0 3.1992188,26.199219 0.80000001,0.80000001 0 0 0 4,27 h 7 4 4 7 A 0.80000001,0.80000001 0 0 0 26.800781,26.199219 0.80000001,0.80000001 0 0 0 26,25.400391 h -7 -4 -4 z"
     id="path2059-6" /><path
     style="color:#000000;fill:#000000;stroke-linecap:round;stroke-linejoin:round;-inkscape-stroke:none;stroke:none"
     d="m 23.199219,3 a 0.80008001,0.80008001 0 0 0 -0.714844,0.4414063 c -0.5,0.999999 -0.725317,1.4186768 -0.974609,1.6679687 -0.249292,0.2492919 -0.66797,0.4746099 -1.667969,0.9746094 a 0.80008001,0.80008001 0 0 0 0,1.4316406 c 0.999999,0.4999995 1.418677,0.7253175 1.667969,0.9746094 0.249292,0.2492919 0.47461,0.6679697 0.974609,1.6679686 a 0.80008001,0.80008001 0 0 0 1.431641,0 c 0.499999,-0.9999989 0.725317,-1.4186767 0.974609,-1.6679686 0.249292,-0.2492919 0.66797,-0.4746099 1.667969,-0.9746094 a 0.80008001,0.80008001 0 0 0 0,-1.4316406 C 25.558595,5.5839849 25.139917,5.3586669 24.890625,5.109375 24.641333,4.8600831 24.416015,4.4414053 23.916016,3.4414063 A 0.80008001,0.80008001 0 0 0 23.199219,3 Z m 0,2.3261719 c 0.170818,0.2798071 0.340658,0.6941734 0.560547,0.9140625 0.219889,0.2198891 0.634255,0.3897286 0.914062,0.5605468 C 24.394371,6.9714472 23.979445,7.1396951 23.759766,7.359375 23.539877,7.5792641 23.370037,7.9936304 23.199219,8.2734375 23.028553,7.9939806 22.860305,7.5790549 22.640625,7.359375 22.420945,7.1396951 22.006019,6.9714472 21.726562,6.8007812 22.00637,6.629963 22.420736,6.4601235 22.640625,6.2402344 22.860305,6.0205545 23.028553,5.6056287 23.199219,5.3261719 Z"
     id="path2898" /><path
     style="color:#000000;fill:#000000;stroke-linecap:round;stroke-linejoin:round;-inkscape-stroke:none;stroke:none"
     d="m 23.199219,3 a 0.80008001,0.80008001 0 0 0 -0.714844,0.4414063 c -0.5,0.999999 -0.725317,1.4186768 -0.974609,1.6679687 -0.249292,0.2492919 -0.66797,0.4746099 -1.667969,0.9746094 a 0.80008001,0.80008001 0 0 0 0,1.4316406 c 0.999999,0.4999995 1.418677,0.7253175 1.667969,0.9746094 0.249292,0.2492919 0.47461,0.6679697 0.974609,1.6679686 a 0.80008001,0.80008001 0 0 0 1.431641,0 c 0.499999,-0.9999989 0.725317,-1.4186767 0.974609,-1.6679686 0.249292,-0.2492919 0.66797,-0.4746099 1.667969,-0.9746094 a 0.80008001,0.80008001 0 0 0 0,-1.4316406 C 25.558595,5.5839849 25.139917,5.3586669 24.890625,5.109375 24.641333,4.8600831 24.416015,4.4414053 23.916016,3.4414063 A 0.80008001,0.80008001 0 0 0 23.199219,3 Z m 0,2.3261719 c 0.170818,0.2798071 0.340658,0.6941734 0.560547,0.9140625 0.219889,0.2198891 0.634255,0.3897286 0.914062,0.5605468 C 24.394371,6.9714472 23.979445,7.1396951 23.759766,7.359375 23.539877,7.5792641 23.370037,7.9936304 23.199219,8.2734375 23.028553,7.9939806 22.860305,7.5790549 22.640625,7.359375 22.420945,7.1396951 22.006019,6.9714472 21.726562,6.8007812 22.00637,6.629963 22.420736,6.4601235 22.640625,6.2402344 22.860305,6.0205545 23.028553,5.6056287 23.199219,5.3261719 Z"
     id="path2900" /></g></svg>
