<?xml version="1.0" encoding="UTF-8" standalone="no"?>
<!-- Generator: Adobe Illustrator 22.0.1, SVG Export Plug-In . SVG Version: 6.00 Build 0)  -->

<svg
   version="1.1"
   id="Layer_1"
   x="0px"
   y="0px"
   viewBox="0 0 30 30"
   xml:space="preserve"
   sodipodi:docname="ti-21.svg"
   inkscape:version="1.2.1 (9c6d41e4, 2022-07-14)"
   inkscape:export-filename="ti-21.svg"
   inkscape:export-xdpi="96"
   inkscape:export-ydpi="96"
   width="30"
   height="30"
   xmlns:inkscape="http://www.inkscape.org/namespaces/inkscape"
   xmlns:sodipodi="http://sodipodi.sourceforge.net/DTD/sodipodi-0.dtd"
   xmlns="http://www.w3.org/2000/svg"
   xmlns:svg="http://www.w3.org/2000/svg"><defs
   id="defs134" /><sodipodi:namedview
   id="namedview132"
   pagecolor="#ffffff"
   bordercolor="#666666"
   borderopacity="1.0"
   inkscape:showpageshadow="2"
   inkscape:pageopacity="0.0"
   inkscape:pagecheckerboard="0"
   inkscape:deskcolor="#d1d1d1"
   showgrid="true"
   inkscape:zoom="17.347662"
   inkscape:cx="6.1391559"
   inkscape:cy="17.985133"
   inkscape:window-width="1280"
   inkscape:window-height="456"
   inkscape:window-x="0"
   inkscape:window-y="23"
   inkscape:window-maximized="0"
   inkscape:current-layer="g2318"
   showguides="true"><inkscape:grid
     type="xygrid"
     id="grid726"
     originx="0"
     originy="0" /><sodipodi:guide
     position="0.066666667,0.33333"
     orientation="0,-1"
     id="guide728"
     inkscape:locked="false" /></sodipodi:namedview>

<g
   id="g2318"
   style="fill:#000000;stroke:none"><path
     id="path2316"
     style="color:#000000;fill:#000000;stroke-linecap:round;-inkscape-stroke:none;stroke:none"
     d="M 13.291016 11.080078 L 12.03125 11.623047 C 9.2875397 12.806245 7.5043417 15.510086 7.5 18.498047 L 7.5 18.5 L 7.5 18.501953 C 7.5019575 19.888624 7.8896059 21.235573 8.6015625 22.400391 L 10.582031 22.400391 C 9.6323517 21.32726 9.1045436 19.942286 9.1015625 18.501953 L 9.1015625 18.5 L 9.1015625 18.498047 C 9.1056725 16.556256 10.091217 14.814268 11.638672 13.726562 C 11.962252 17.878571 14.800965 21.256835 18.716797 22.412109 L 18.732422 22.400391 L 21.410156 22.400391 L 22.019531 21.466797 L 20.703125 21.339844 C 16.393903 20.928743 13.112771 17.328565 13.101562 13 L 13.101562 12.998047 C 13.109262 12.812591 13.122598 12.628017 13.142578 12.443359 L 13.291016 11.080078 z " /><g
     id="g2364-7-7"
     style="fill:#000000;stroke:none"><path
       style="color:#000000;fill:#000000;stroke-linecap:round;-inkscape-stroke:none;stroke:none"
       d="M 3,25.400391 A 0.80000001,0.80000001 0 0 0 2.1992188,26.199219 0.80000001,0.80000001 0 0 0 3,27 h 8 A 0.80000001,0.80000001 0 0 0 11.800781,26.199219 0.80000001,0.80000001 0 0 0 11,25.400391 Z"
       id="path2355-2-7" /><path
       style="color:#000000;fill:#000000;stroke-linecap:round;-inkscape-stroke:none;stroke:none"
       d="M 19,25.400391 A 0.80000001,0.80000001 0 0 0 18.199219,26.199219 0.80000001,0.80000001 0 0 0 19,27 h 8 A 0.80000001,0.80000001 0 0 0 27.800781,26.199219 0.80000001,0.80000001 0 0 0 27,25.400391 Z"
       id="path2357-9-5" /><path
       style="color:#000000;fill:#000000;stroke-linecap:round;-inkscape-stroke:none;stroke:none"
       d="M 4,22.400391 A 0.80000001,0.80000001 0 0 0 3.1992188,23.199219 0.80000001,0.80000001 0 0 0 4,24 h 6.732422 L 15,27.199219 19.267578,24 H 26 A 0.80000001,0.80000001 0 0 0 26.800781,23.199219 0.80000001,0.80000001 0 0 0 26,22.400391 H 18.732422 L 15,25.199219 11.267578,22.400391 Z"
       id="path2359-8-1" /></g><path
     style="color:#000000;fill:#000000;stroke-linecap:round;stroke-linejoin:round;-inkscape-stroke:none;stroke:none"
     d="m 23.199219,3 a 0.80008001,0.80008001 0 0 0 -0.714844,0.4414063 c -0.5,0.999999 -0.725317,1.4186768 -0.974609,1.6679687 -0.249292,0.2492919 -0.66797,0.4746099 -1.667969,0.9746094 a 0.80008001,0.80008001 0 0 0 0,1.4316406 c 0.999999,0.4999995 1.418677,0.7253175 1.667969,0.9746094 0.249292,0.2492919 0.47461,0.6679697 0.974609,1.6679686 a 0.80008001,0.80008001 0 0 0 1.431641,0 c 0.499999,-0.9999989 0.725317,-1.4186767 0.974609,-1.6679686 0.249292,-0.2492919 0.66797,-0.4746099 1.667969,-0.9746094 a 0.80008001,0.80008001 0 0 0 0,-1.4316406 C 25.558595,5.5839849 25.139917,5.3586669 24.890625,5.109375 24.641333,4.8600831 24.416015,4.4414053 23.916016,3.4414063 A 0.80008001,0.80008001 0 0 0 23.199219,3 Z m 0,2.3261719 c 0.170818,0.2798071 0.340658,0.6941734 0.560547,0.9140625 0.219889,0.2198891 0.634255,0.3897286 0.914062,0.5605468 C 24.394371,6.9714472 23.979445,7.1396951 23.759766,7.359375 23.539877,7.5792641 23.370037,7.9936304 23.199219,8.2734375 23.028553,7.9939806 22.860305,7.5790549 22.640625,7.359375 22.420945,7.1396951 22.006019,6.9714472 21.726562,6.8007812 22.00637,6.629963 22.420736,6.4601235 22.640625,6.2402344 22.860305,6.0205545 23.028553,5.6056287 23.199219,5.3261719 Z"
     id="path2900-1-2-9" /></g></svg>
