<?xml version="1.0" encoding="UTF-8" standalone="no"?>
<!-- Generator: Adobe Illustrator 22.0.1, SVG Export Plug-In . SVG Version: 6.00 Build 0)  -->

<svg
   version="1.1"
   id="Layer_1"
   x="0px"
   y="0px"
   viewBox="0 0 30 30"
   xml:space="preserve"
   sodipodi:docname="ti-22.svg"
   inkscape:version="1.2.1 (9c6d41e4, 2022-07-14)"
   inkscape:export-filename="ti-21.svg"
   inkscape:export-xdpi="96"
   inkscape:export-ydpi="96"
   width="30"
   height="30"
   xmlns:inkscape="http://www.inkscape.org/namespaces/inkscape"
   xmlns:sodipodi="http://sodipodi.sourceforge.net/DTD/sodipodi-0.dtd"
   xmlns="http://www.w3.org/2000/svg"
   xmlns:svg="http://www.w3.org/2000/svg"><defs
   id="defs134" /><sodipodi:namedview
   id="namedview132"
   pagecolor="#ffffff"
   bordercolor="#666666"
   borderopacity="1.0"
   inkscape:showpageshadow="2"
   inkscape:pageopacity="0.0"
   inkscape:pagecheckerboard="0"
   inkscape:deskcolor="#d1d1d1"
   showgrid="true"
   inkscape:zoom="11.193747"
   inkscape:cx="8.6208845"
   inkscape:cy="18.581803"
   inkscape:window-width="1280"
   inkscape:window-height="456"
   inkscape:window-x="0"
   inkscape:window-y="23"
   inkscape:window-maximized="0"
   inkscape:current-layer="g2330"
   showguides="true"><inkscape:grid
     type="xygrid"
     id="grid726"
     originx="0"
     originy="0" /><sodipodi:guide
     position="0.066666667,0.33333"
     orientation="0,-1"
     id="guide728"
     inkscape:locked="false" /></sodipodi:namedview>

<g
   id="g2330"
   style="fill:#000000;stroke:none"><path
     id="path2900-1-2-9-2"
     style="color:#000000;fill:#000000;stroke-linecap:round;stroke-linejoin:round;-inkscape-stroke:none;stroke:none"
     d="M 23.199219 3 A 0.80008001 0.80008001 0 0 0 22.484375 3.4414062 C 21.984375 4.4414016 21.759054 4.8600839 21.509766 5.109375 C 21.260474 5.3586661 20.841792 5.5839869 19.841797 6.0839844 A 0.80008001 0.80008001 0 0 0 19.841797 7.515625 C 20.841792 8.0156225 21.260474 8.2409433 21.509766 8.4902344 C 21.759054 8.7395251 21.984376 9.1582085 22.484375 10.158203 A 0.80008001 0.80008001 0 0 0 23.916016 10.158203 C 24.416011 9.1582085 24.641333 8.7395251 24.890625 8.4902344 C 25.139917 8.2409433 25.558599 8.0156225 26.558594 7.515625 A 0.80008001 0.80008001 0 0 0 26.558594 6.0839844 C 25.558599 5.5839869 25.139917 5.3586661 24.890625 5.109375 C 24.641333 4.8600839 24.416011 4.4414016 23.916016 3.4414062 A 0.80008001 0.80008001 0 0 0 23.199219 3 z M 23.199219 5.3261719 C 23.370037 5.6059778 23.539877 6.0203461 23.759766 6.2402344 C 23.979651 6.4601227 24.394021 6.6299638 24.673828 6.8007812 C 24.394371 6.9714468 23.979441 7.1396959 23.759766 7.359375 C 23.539877 7.5792633 23.370037 7.9936316 23.199219 8.2734375 C 23.028553 7.9939818 22.860305 7.5790541 22.640625 7.359375 C 22.420945 7.1396959 22.006019 6.9714468 21.726562 6.8007812 C 22.00637 6.6299638 22.420736 6.4601227 22.640625 6.2402344 C 22.860305 6.0205553 23.028553 5.6056275 23.199219 5.3261719 z M 13.53125 15.080078 L 12.271484 15.623047 C 9.5583645 16.793054 7.7855889 19.452114 7.7421875 22.400391 L 4 22.400391 A 0.80000001 0.80000001 0 0 0 3.1992188 23.199219 A 0.80000001 0.80000001 0 0 0 4 24 L 10.732422 24 L 15 27.199219 L 19.267578 24 L 26 24 A 0.80000001 0.80000001 0 0 0 26.800781 23.199219 A 0.80000001 0.80000001 0 0 0 26 22.400391 L 18.732422 22.400391 L 16.851562 23.810547 C 14.723885 22.285854 13.352343 19.800362 13.341797 17.009766 C 13.349397 16.821029 13.362476 16.631274 13.382812 16.443359 L 13.53125 15.080078 z M 11.835938 17.751953 C 12.0589 20.582929 13.413183 23.121245 15.521484 24.808594 L 15 25.199219 L 11.267578 22.400391 L 9.34375 22.400391 C 9.379876 20.51494 10.338276 18.823647 11.835938 17.751953 z M 3 25.400391 A 0.80000001 0.80000001 0 0 0 2.1992188 26.199219 A 0.80000001 0.80000001 0 0 0 3 27 L 11 27 A 0.80000001 0.80000001 0 0 0 11.800781 26.199219 A 0.80000001 0.80000001 0 0 0 11 25.400391 L 3 25.400391 z M 19 25.400391 A 0.80000001 0.80000001 0 0 0 18.199219 26.199219 A 0.80000001 0.80000001 0 0 0 19 27 L 27 27 A 0.80000001 0.80000001 0 0 0 27.800781 26.199219 A 0.80000001 0.80000001 0 0 0 27 25.400391 L 19 25.400391 z " /></g></svg>
