<?xml version="1.0" encoding="UTF-8" standalone="no"?>
<!-- Generator: Adobe Illustrator 22.0.1, SVG Export Plug-In . SVG Version: 6.00 Build 0)  -->

<svg
   version="1.1"
   id="Layer_1"
   x="0px"
   y="0px"
   viewBox="0 0 30 30"
   xml:space="preserve"
   width="30"
   height="30"
   sodipodi:docname="few_clouds-m.svg"
   inkscape:version="1.2.1 (9c6d41e4, 2022-07-14)"
   xmlns:inkscape="http://www.inkscape.org/namespaces/inkscape"
   xmlns:sodipodi="http://sodipodi.sourceforge.net/DTD/sodipodi-0.dtd"
   xmlns="http://www.w3.org/2000/svg"
   xmlns:svg="http://www.w3.org/2000/svg"><sodipodi:namedview
   id="namedview12689"
   pagecolor="#ffffff"
   bordercolor="#666666"
   borderopacity="1.0"
   inkscape:showpageshadow="2"
   inkscape:pageopacity="0.0"
   inkscape:pagecheckerboard="0"
   inkscape:deskcolor="#d1d1d1"
   showgrid="false"
   inkscape:zoom="13.23987"
   inkscape:cx="19.222243"
   inkscape:cy="13.293182"
   inkscape:window-width="1280"
   inkscape:window-height="456"
   inkscape:window-x="0"
   inkscape:window-y="23"
   inkscape:window-maximized="0"
   inkscape:current-layer="g2566"><sodipodi:guide
     position="24.191406,14"
     orientation="0,1"
     id="guide62945"
     inkscape:locked="false"
     inkscape:label=""
     inkscape:color="rgb(0,134,229)" /><sodipodi:guide
     position="28,19"
     orientation="0,-3.808594"
     id="guide62947"
     inkscape:locked="false" /><sodipodi:guide
     position="14,28"
     orientation="-1,0"
     id="guide62949"
     inkscape:locked="false"
     inkscape:label=""
     inkscape:color="rgb(0,134,229)" /><sodipodi:guide
     position="19,24.191406"
     orientation="-3.8085937,0"
     id="guide62951"
     inkscape:locked="false" /></sodipodi:namedview><defs
   id="defs134" />

<g
   id="g2566"
   style="stroke:none;fill:#000000"><path
     id="path57926"
     style="color:#000000;fill:#000000;stroke:none;stroke-width:1;stroke-linecap:round;stroke-opacity:1;-inkscape-stroke:none"
     d="m 19,6.0019531 c -1.886846,3.505e-4 -3.537984,1.0575923 -4.388672,2.609375 0.299417,0.166234 0.585007,0.3583232 0.851563,0.5800781 0.157769,0.1312531 0.300936,0.2788766 0.4375,0.4335938 0.472,-1.0302899 1.458102,-1.7659113 2.636718,-1.9316406 0.09415,2.1534988 1.56933,3.9084766 3.583985,4.5039066 -0.231666,0.604718 -0.617977,1.124766 -1.109375,1.507812 0.111612,0.1011 0.217288,0.20767 0.316406,0.31836 0.267323,0.29853 0.483813,0.629504 0.662109,0.976562 1.008295,-0.755572 1.728818,-1.885014 1.941407,-3.203125 l 0.136718,-0.851563 -0.857421,-0.07422 C 21.450929,10.720455 20.109864,9.2661332 20.101562,7.5 c -4e-6,-8.39e-4 3e-6,-0.00301 0,-0.00391 0.0011,-0.1824489 0.0165,-0.363055 0.04688,-0.5429688 l 0.142578,-0.8515625 -0.859375,-0.080078 c -0.142244,-0.01308 -0.284893,-0.018671 -0.427735,-0.019531 h -0.002 z"
     sodipodi:nodetypes="scsccccsccccsccccccs" /></g></svg>
