<?xml version="1.0" encoding="UTF-8" standalone="no"?>
<!-- Generator: Adobe Illustrator 22.0.1, SVG Export Plug-In . SVG Version: 6.00 Build 0)  -->

<svg
   version="1.1"
   id="Layer_1"
   x="0px"
   y="0px"
   viewBox="0 0 30 30"
   xml:space="preserve"
   sodipodi:docname="scattered_clouds-m.svg"
   inkscape:version="1.2.1 (9c6d41e4, 2022-07-14)"
   inkscape:export-filename="ti-6.svg"
   inkscape:export-xdpi="96"
   inkscape:export-ydpi="96"
   width="30"
   height="30"
   xmlns:inkscape="http://www.inkscape.org/namespaces/inkscape"
   xmlns:sodipodi="http://sodipodi.sourceforge.net/DTD/sodipodi-0.dtd"
   xmlns="http://www.w3.org/2000/svg"
   xmlns:svg="http://www.w3.org/2000/svg"><defs
   id="defs134" /><sodipodi:namedview
   id="namedview132"
   pagecolor="#ffffff"
   bordercolor="#666666"
   borderopacity="1.0"
   inkscape:showpageshadow="2"
   inkscape:pageopacity="0.0"
   inkscape:pagecheckerboard="0"
   inkscape:deskcolor="#d1d1d1"
   showgrid="true"
   inkscape:zoom="15.207119"
   inkscape:cx="23.706003"
   inkscape:cy="13.743563"
   inkscape:window-width="1280"
   inkscape:window-height="456"
   inkscape:window-x="0"
   inkscape:window-y="23"
   inkscape:window-maximized="0"
   inkscape:current-layer="g2566"
   showguides="true"><inkscape:grid
     type="xygrid"
     id="grid726"
     originx="0"
     originy="0" /><sodipodi:guide
     position="0.066666667,0.33333"
     orientation="0,-1"
     id="guide728"
     inkscape:locked="false" /></sodipodi:namedview>

<g
   id="g2566"
   style="stroke:none;fill:#000000"><path
     id="path57926"
     style="color:#000000;fill:#000000;stroke:none;stroke-width:1;stroke-linecap:round;stroke-opacity:1;-inkscape-stroke:none"
     d="M 19,6.0019531 C 16.959252,6.0023322 15.194925,7.2384388 14.419922,9 c 0.378742,0.2133012 0.737749,0.4667192 1.066406,0.7617188 0.09152,0.082147 0.179484,0.167516 0.263672,0.2578122 0.381141,-1.2354431 1.462916,-2.1399721 2.787109,-2.3261716 0.09415,2.1534966 1.569332,3.9084766 3.583985,4.5039066 -0.329108,0.85907 -0.968552,1.547648 -1.78125,1.914062 0.19979,0.125902 0.392655,0.263344 0.576172,0.416016 0.25703,0.213831 0.483938,0.461559 0.683593,0.736328 1.210579,-0.741278 2.09298,-1.984609 2.332032,-3.466797 l 0.136718,-0.851563 -0.857421,-0.07422 C 21.45093,10.720455 20.109864,9.2661314 20.101562,7.5 c -3e-6,-8.39e-4 3e-6,-0.00301 0,-0.00391 0.0011,-0.1824488 0.0165,-0.3630552 0.04688,-0.5429688 l 0.142578,-0.8515625 -0.859375,-0.080078 c -0.142244,-0.01308 -0.284893,-0.018671 -0.427735,-0.019531 h -0.002 z"
     sodipodi:nodetypes="scsccccsccccsccccccs" /></g></svg>
