<?xml version="1.0" encoding="UTF-8" standalone="no"?>
<!-- Generator: Adobe Illustrator 22.0.1, SVG Export Plug-In . SVG Version: 6.00 Build 0)  -->

<svg
   version="1.1"
   id="Layer_1"
   x="0px"
   y="0px"
   viewBox="0 0 30 30"
   xml:space="preserve"
   sodipodi:docname="shower_rain-m.svg"
   inkscape:version="1.2.1 (9c6d41e4, 2022-07-14)"
   inkscape:export-filename="test.png"
   inkscape:export-xdpi="320"
   inkscape:export-ydpi="320"
   width="30"
   height="30"
   xmlns:inkscape="http://www.inkscape.org/namespaces/inkscape"
   xmlns:sodipodi="http://sodipodi.sourceforge.net/DTD/sodipodi-0.dtd"
   xmlns="http://www.w3.org/2000/svg"
   xmlns:svg="http://www.w3.org/2000/svg"><defs
   id="defs134" /><sodipodi:namedview
   id="namedview132"
   pagecolor="#ffffff"
   bordercolor="#666666"
   borderopacity="1.0"
   inkscape:showpageshadow="2"
   inkscape:pageopacity="0.0"
   inkscape:pagecheckerboard="0"
   inkscape:deskcolor="#d1d1d1"
   showgrid="true"
   inkscape:zoom="10.673147"
   inkscape:cx="15.506205"
   inkscape:cy="16.11521"
   inkscape:window-width="1280"
   inkscape:window-height="456"
   inkscape:window-x="0"
   inkscape:window-y="23"
   inkscape:window-maximized="0"
   inkscape:current-layer="g2566"
   showguides="true"
   inkscape:lockguides="false"><inkscape:grid
     type="xygrid"
     id="grid726"
     originx="0"
     originy="0" /><sodipodi:guide
     position="5,3.8"
     orientation="0,1"
     id="guide10276"
     inkscape:label=""
     inkscape:locked="false"
     inkscape:color="rgb(255,120,0)" /><sodipodi:guide
     position="5,5.8"
     orientation="0,1"
     id="guide11730"
     inkscape:label=""
     inkscape:locked="false"
     inkscape:color="rgb(255,120,0)" /><sodipodi:guide
     position="5,7.8"
     orientation="0,1"
     id="guide13184"
     inkscape:label=""
     inkscape:locked="false"
     inkscape:color="rgb(255,120,0)" /><sodipodi:guide
     position="5,9.8"
     orientation="0,1"
     id="guide14638"
     inkscape:label=""
     inkscape:locked="false"
     inkscape:color="rgb(255,120,0)" /><sodipodi:guide
     position="5,11.8"
     orientation="0,1"
     id="guide16092"
     inkscape:label=""
     inkscape:locked="false"
     inkscape:color="rgb(255,120,0)" /></sodipodi:namedview>

<g
   id="g2566"
   style="stroke:none;fill:#000000"><path
     id="path57926"
     style="color:#000000;fill:#000000;stroke:none;stroke-width:1;stroke-linecap:round;stroke-opacity:1;-inkscape-stroke:none"
     d="m 19,6.0019531 c -1.886478,3.504e-4 -3.535885,1.0580887 -4.386719,2.609375 0.299417,0.1662339 0.585008,0.3583237 0.851563,0.5800781 0.156832,0.1304729 0.301716,0.2740614 0.4375,0.4277344 0.473008,-1.0273682 1.458269,-1.76035 2.634765,-1.9257812 0.09415,2.1534988 1.56933,3.9084766 3.583985,4.5039066 -0.231666,0.604718 -0.617977,1.124766 -1.109375,1.507812 0.111612,0.1011 0.217288,0.20767 0.316406,0.31836 0.266611,0.297735 0.48796,0.62467 0.666016,0.970703 1.005389,-0.755559 1.725301,-1.881573 1.9375,-3.197266 l 0.136718,-0.851563 -0.857421,-0.07422 C 21.450929,10.720455 20.109864,9.2661332 20.101562,7.5 c -4e-6,-8.39e-4 3e-6,-0.00301 0,-0.00391 0.0011,-0.1824489 0.0165,-0.363055 0.04688,-0.5429688 l 0.142578,-0.8515625 -0.859375,-0.080078 c -0.142244,-0.01308 -0.284893,-0.018671 -0.427735,-0.019531 h -0.002 z"
     sodipodi:nodetypes="scsccccsccccsccccccs" /></g></svg>
