<?xml version="1.0" encoding="UTF-8" standalone="no"?>
<!-- Generator: Adobe Illustrator 22.0.1, SVG Export Plug-In . SVG Version: 6.00 Build 0)  -->

<svg
   version="1.1"
   id="Layer_1"
   x="0px"
   y="0px"
   viewBox="0 0 30 30"
   xml:space="preserve"
   sodipodi:docname="barometer-b.svg"
   inkscape:version="1.2.1 (9c6d41e4, 2022-07-14)"
   inkscape:export-filename="ti-6.svg"
   inkscape:export-xdpi="96"
   inkscape:export-ydpi="96"
   width="30"
   height="30"
   xmlns:inkscape="http://www.inkscape.org/namespaces/inkscape"
   xmlns:sodipodi="http://sodipodi.sourceforge.net/DTD/sodipodi-0.dtd"
   xmlns="http://www.w3.org/2000/svg"
   xmlns:svg="http://www.w3.org/2000/svg"><defs
   id="defs134" /><sodipodi:namedview
   id="namedview132"
   pagecolor="#ffffff"
   bordercolor="#666666"
   borderopacity="1.0"
   inkscape:showpageshadow="2"
   inkscape:pageopacity="0.0"
   inkscape:pagecheckerboard="0"
   inkscape:deskcolor="#d1d1d1"
   showgrid="true"
   inkscape:zoom="17.565591"
   inkscape:cx="12.837598"
   inkscape:cy="15.741002"
   inkscape:window-width="1280"
   inkscape:window-height="687"
   inkscape:window-x="0"
   inkscape:window-y="23"
   inkscape:window-maximized="1"
   inkscape:current-layer="g2566"
   showguides="true"><inkscape:grid
     type="xygrid"
     id="grid726"
     originx="0"
     originy="0" /><sodipodi:guide
     position="0.066666667,0.33333"
     orientation="0,-1"
     id="guide728"
     inkscape:locked="false" /></sodipodi:namedview>

<g
   id="g2566"
   style="stroke:none;fill:#000000"><path
     style="color:#000000;stroke-linecap:round;stroke-linejoin:round"
     d="m 17.001953,15.800781 a 0.80008001,0.80008001 0 0 0 -0.800781,0.800781 v 3.625 3.171875 a 0.80000001,0.80000001 0 0 0 0.800781,0.800782 0.80000001,0.80000001 0 0 0 0.800781,-0.800782 v -2.371093 h 1.199219 c 0.972642,0 1.890741,-0.4653 2.408203,-1.277344 0.517462,-0.812041 0.517462,-1.859833 0,-2.671875 -0.517462,-0.812041 -1.435559,-1.277344 -2.408203,-1.277344 z m 0.800781,1.59961 h 1.199219 c 0.457061,0 0.861201,0.227345 1.058594,0.537109 0.197392,0.309763 0.197391,0.643364 0,0.953125 -0.197393,0.309765 -0.601532,0.535156 -1.058594,0.535156 h -1.199219 z"
     id="path6672" /><path
     style="color:#000000"
     d="m 7.5996094,16.199219 v 1.601562 H 10 v -1.601562 z"
     id="path8192" /><path
     style="color:#000000"
     d="m 7.5996094,16.199219 v 1.601562 H 10 v -1.601562 z"
     id="path8926" /><path
     style="color:#000000"
     d="m 10.333984,11.201172 -1.1328121,1.132812 1.6972661,1.695313 1.130859,-1.130859 z"
     id="path8932" /><path
     style="color:#000000"
     d="M 14.199219,9.5996094 V 12 h 1.601562 V 9.5996094 Z"
     id="path8934" /><path
     style="color:#000000"
     d="m 19.666016,11.201172 -1.695313,1.697266 1.130859,1.130859 1.697266,-1.695313 z"
     id="path8936" /></g></svg>
