<?xml version="1.0" encoding="UTF-8" standalone="no"?>
<!-- Generator: Adobe Illustrator 22.0.1, SVG Export Plug-In . SVG Version: 6.00 Build 0)  -->

<svg
   version="1.1"
   id="Layer_1"
   x="0px"
   y="0px"
   viewBox="0 0 30 30"
   xml:space="preserve"
   sodipodi:docname="broken_clouds-b.svg"
   inkscape:version="1.2.1 (9c6d41e4, 2022-07-14)"
   inkscape:export-filename="ti-6.svg"
   inkscape:export-xdpi="96"
   inkscape:export-ydpi="96"
   width="30"
   height="30"
   xmlns:inkscape="http://www.inkscape.org/namespaces/inkscape"
   xmlns:sodipodi="http://sodipodi.sourceforge.net/DTD/sodipodi-0.dtd"
   xmlns="http://www.w3.org/2000/svg"
   xmlns:svg="http://www.w3.org/2000/svg"><defs
   id="defs134" /><sodipodi:namedview
   id="namedview132"
   pagecolor="#ffffff"
   bordercolor="#666666"
   borderopacity="1.0"
   inkscape:showpageshadow="2"
   inkscape:pageopacity="0.0"
   inkscape:pagecheckerboard="0"
   inkscape:deskcolor="#d1d1d1"
   showgrid="true"
   inkscape:zoom="12.79472"
   inkscape:cx="13.716596"
   inkscape:cy="7.8938812"
   inkscape:window-width="1280"
   inkscape:window-height="456"
   inkscape:window-x="0"
   inkscape:window-y="23"
   inkscape:window-maximized="0"
   inkscape:current-layer="g2566"
   showguides="true"><inkscape:grid
     type="xygrid"
     id="grid726"
     originx="0"
     originy="0" /><sodipodi:guide
     position="0.066666667,0.33333"
     orientation="0,-1"
     id="guide728"
     inkscape:locked="false" /></sodipodi:namedview>

<g
   id="g2566"
   style="stroke:none;fill:#000000"><path
     id="path23820"
     style="color:#000000;fill:#000000;-inkscape-stroke:none;stroke:none"
     d="m 16.980469,2.5 c -1.411654,-0.00212 -2.835019,0.4296639 -3.9375,1.3457031 -0.891578,0.7408014 -1.45629,1.8686544 -1.664063,3.1953125 0.05076,-9.265e-4 0.10164,-0.00594 0.152344,-0.00586 0.446044,6.697e-4 0.893741,0.044993 1.335938,0.125 0.160116,-0.9147314 0.595251,-1.5837776 1.197265,-2.0839843 0.765577,-0.6361098 1.834971,-0.9781826 2.914063,-0.9765625 1.079091,0.00162 2.147593,0.3467269 2.914062,0.984375 0.76647,0.6376479 1.267578,1.5398796 1.267578,2.875 v 0.8007812 h 1.976563 c 1.154415,0 1.921087,0.4021739 2.451172,0.9941406 0.530083,0.5919668 0.812027,1.4108008 0.8125,2.2402348 4.72e-4,0.829432 -0.280972,1.64663 -0.810547,2.238281 -0.529577,0.59165 -1.296075,0.99414 -2.453125,0.99414 H 22.96875 c 0.193715,0.515077 0.313932,1.053261 0.359375,1.59375 1.465881,-0.04779 2.663037,-0.636833 3.453125,-1.519531 C 27.605693,14.379701 28.000677,13.179728 28,11.992188 27.999323,10.804646 27.603806,9.6063106 26.779297,8.6855469 25.954787,7.7647831 24.688618,7.1601563 23.136719,7.1601562 H 22.587891 C 22.388572,5.7926628 21.831888,4.6154557 20.916016,3.8535156 19.814427,2.9370725 18.392121,2.5021193 16.980469,2.5 Z"
     sodipodi:nodetypes="sscscsssscsssssccsssscss" /></g></svg>
