<?xml version="1.0" encoding="UTF-8" standalone="no"?>
<!-- Generator: Adobe Illustrator 22.0.1, SVG Export Plug-In . SVG Version: 6.00 Build 0)  -->

<svg
   version="1.1"
   id="Layer_1"
   x="0px"
   y="0px"
   viewBox="0 0 30 30"
   xml:space="preserve"
   sodipodi:docname="clear_sky-b.svg"
   inkscape:version="1.2.1 (9c6d41e4, 2022-07-14)"
   inkscape:export-filename="ti-6.svg"
   inkscape:export-xdpi="96"
   inkscape:export-ydpi="96"
   width="30"
   height="30"
   xmlns:inkscape="http://www.inkscape.org/namespaces/inkscape"
   xmlns:sodipodi="http://sodipodi.sourceforge.net/DTD/sodipodi-0.dtd"
   xmlns="http://www.w3.org/2000/svg"
   xmlns:svg="http://www.w3.org/2000/svg"><defs
   id="defs134" /><sodipodi:namedview
   id="namedview132"
   pagecolor="#ffffff"
   bordercolor="#666666"
   borderopacity="1.0"
   inkscape:showpageshadow="2"
   inkscape:pageopacity="0.0"
   inkscape:pagecheckerboard="0"
   inkscape:deskcolor="#d1d1d1"
   showgrid="true"
   inkscape:zoom="9.9722379"
   inkscape:cx="8.9749162"
   inkscape:cy="14.038975"
   inkscape:window-width="1280"
   inkscape:window-height="456"
   inkscape:window-x="0"
   inkscape:window-y="23"
   inkscape:window-maximized="0"
   inkscape:current-layer="g4830"
   showguides="true"><inkscape:grid
     type="xygrid"
     id="grid726"
     originx="0"
     originy="0" /><sodipodi:guide
     position="0.066666667,0.33333"
     orientation="0,-1"
     id="guide728"
     inkscape:locked="false" /></sodipodi:namedview>

<g
   id="g2566"
   style="stroke:none;fill:#000000"><g
     id="g4830"
     transform="matrix(0.63076919,0,0,0.63076919,5.5384623,5.5384623)"
     style="fill:#000000;stroke:none;stroke-width:1.58537"><path
       style="color:#000000;stroke-linecap:round;-inkscape-stroke:none"
       d="M 24.5,13.732422 A 1.268295,1.268295 0 0 0 23.232422,15 1.268295,1.268295 0 0 0 24.5,16.267578 H 28 A 1.268295,1.268295 0 0 0 29.267578,15 1.268295,1.268295 0 0 0 28,13.732422 Z"
       id="path3342-3" /><path
       style="color:#000000;stroke-linecap:round"
       d="m 20.820312,20.820312 a 1.268295,1.268295 0 0 0 0,1.794922 l 2.47461,2.47461 a 1.268295,1.268295 0 0 0 1.794922,0 1.268295,1.268295 0 0 0 0,-1.794922 l -2.47461,-2.47461 a 1.268295,1.268295 0 0 0 -1.794922,0 z"
       id="path3707-6" /><path
       style="color:#000000;stroke-linecap:round"
       d="M 15,23.232422 A 1.268295,1.268295 0 0 0 13.732422,24.5 V 28 A 1.268295,1.268295 0 0 0 15,29.267578 1.268295,1.268295 0 0 0 16.267578,28 V 24.5 A 1.268295,1.268295 0 0 0 15,23.232422 Z"
       id="path3729-0" /><path
       style="color:#000000;stroke-linecap:round"
       d="m 7.3847656,20.820312 -2.4746094,2.47461 a 1.268295,1.268295 0 0 0 0,1.794922 1.268295,1.268295 0 0 0 1.7949219,0 l 2.4746094,-2.47461 a 1.268295,1.268295 0 0 0 0,-1.794922 1.268295,1.268295 0 0 0 -1.7949219,0 z"
       id="path3731-4" /><path
       style="color:#000000;stroke-linecap:round"
       d="M 2,13.732422 A 1.268295,1.268295 0 0 0 0.73242187,15 1.268295,1.268295 0 0 0 2,16.267578 H 5.5 A 1.268295,1.268295 0 0 0 6.7675781,15 1.268295,1.268295 0 0 0 5.5,13.732422 Z"
       id="path3733-0" /><path
       style="color:#000000;stroke-linecap:round"
       d="m 4.9101562,4.9101562 a 1.268295,1.268295 0 0 0 0,1.7949219 l 2.4746094,2.4746094 a 1.268295,1.268295 0 0 0 1.7949219,0 1.268295,1.268295 0 0 0 0,-1.7949219 L 6.7050781,4.9101562 a 1.268295,1.268295 0 0 0 -1.7949219,0 z"
       id="path3735-9" /><path
       style="color:#000000;stroke-linecap:round"
       d="M 15,0.73242187 A 1.268295,1.268295 0 0 0 13.732422,2 V 5.5 A 1.268295,1.268295 0 0 0 15,6.7675781 1.268295,1.268295 0 0 0 16.267578,5.5 V 2 A 1.268295,1.268295 0 0 0 15,0.73242187 Z"
       id="path3737-2" /><path
       style="color:#000000;stroke-linecap:round"
       d="m 24.193359,4.5390625 a 1.268295,1.268295 0 0 0 -0.898437,0.3710937 l -2.47461,2.4746094 a 1.268295,1.268295 0 0 0 0,1.7949219 1.268295,1.268295 0 0 0 1.794922,0 l 2.47461,-2.4746094 a 1.268295,1.268295 0 0 0 0,-1.7949219 1.268295,1.268295 0 0 0 -0.896485,-0.3710937 z"
       id="path3739-4" /></g></g></svg>
