<?xml version="1.0" encoding="UTF-8" standalone="no"?>
<!-- Generator: Adobe Illustrator 22.0.1, SVG Export Plug-In . SVG Version: 6.00 Build 0)  -->

<svg
   version="1.1"
   id="Layer_1"
   x="0px"
   y="0px"
   viewBox="0 0 30 30"
   xml:space="preserve"
   sodipodi:docname="mist-b.svg"
   inkscape:version="1.2.1 (9c6d41e4, 2022-07-14)"
   inkscape:export-filename="test.png"
   inkscape:export-xdpi="320"
   inkscape:export-ydpi="320"
   width="30"
   height="30"
   xmlns:inkscape="http://www.inkscape.org/namespaces/inkscape"
   xmlns:sodipodi="http://sodipodi.sourceforge.net/DTD/sodipodi-0.dtd"
   xmlns="http://www.w3.org/2000/svg"
   xmlns:svg="http://www.w3.org/2000/svg"><defs
   id="defs134" /><sodipodi:namedview
   id="namedview132"
   pagecolor="#ffffff"
   bordercolor="#666666"
   borderopacity="1.0"
   inkscape:showpageshadow="2"
   inkscape:pageopacity="0.0"
   inkscape:pagecheckerboard="0"
   inkscape:deskcolor="#d1d1d1"
   showgrid="true"
   inkscape:zoom="10.13377"
   inkscape:cx="11.397535"
   inkscape:cy="17.367673"
   inkscape:window-width="1280"
   inkscape:window-height="456"
   inkscape:window-x="0"
   inkscape:window-y="23"
   inkscape:window-maximized="0"
   inkscape:current-layer="g38671"
   showguides="true"
   inkscape:lockguides="false"><inkscape:grid
     type="xygrid"
     id="grid726"
     originx="0"
     originy="0" /></sodipodi:namedview>

<g
   id="g2566"
   style="stroke:none;fill:#000000"><g
     id="g38671"
     transform="translate(2.7257767)"><path
       style="color:#000000;stroke-linecap:round;-inkscape-stroke:none;fill:#000000;stroke:none"
       d="m 19.474609,12.599609 a 0.80000001,0.80000001 0 0 0 -0.800781,0.800782 0.80000001,0.80000001 0 0 0 0.800781,0.798828 h 5 a 0.80000001,0.80000001 0 0 0 0.798828,-0.798828 0.80000001,0.80000001 0 0 0 -0.798828,-0.800782 z"
       id="path50760" /><path
       style="color:#000000;stroke-linecap:round;fill:#000000;stroke:none"
       d="M 0.07421875,8.4003906 A 0.80000001,0.80000001 0 0 0 -0.7265625,9.1992188 0.80000001,0.80000001 0 0 0 0.07421875,10 H 5.2734375 A 0.80000001,0.80000001 0 0 0 6.0742187,9.1992188 0.80000001,0.80000001 0 0 0 5.2734375,8.4003906 Z"
       id="path50768" /><path
       id="path50770"
       style="color:#000000;stroke-linecap:round;fill:#000000;stroke:none"
       d="m 3.2742233,10.800781 c -0.4409129,6.45e-4 -0.7981826,0.357915 -0.7988281,0.798828 -4.322e-4,0.441676 0.3571525,0.800135 0.7988281,0.800782 h 0.7734375 c 0.3785934,-0.167848 0.7829848,-0.296187 1.1992188,-0.392579 0.08114,-0.417119 0.1894186,-0.82163 0.3300781,-1.207031 z"
       sodipodi:nodetypes="ccccccc" /><path
       id="path50772"
       style="color:#000000;stroke-linecap:round;-inkscape-stroke:none;fill:#000000;stroke:none"
       d="M 1.2742233,13.199219 C 0.83254813,13.199866 0.47496353,13.558325 0.47539518,14 c -4.3165e-4,0.441675 0.35715295,0.800134 0.79882812,0.800781 h 0.4414063 c 0.2002902,-0.449776 0.45923,-0.877156 0.7832031,-1.267578 0.099059,-0.119376 0.2049398,-0.229598 0.3164062,-0.333984 z"
       sodipodi:nodetypes="ccccscc" /><path
       style="color:#000000;stroke-linecap:round;-inkscape-stroke:none;fill:#000000;stroke:none"
       d="M 10.273438,23.199219 A 0.80000001,0.80000001 0 0 0 9.4746094,24 0.80000001,0.80000001 0 0 0 10.273438,24.800781 h 4 A 0.80000001,0.80000001 0 0 0 15.074219,24 0.80000001,0.80000001 0 0 0 14.273438,23.199219 Z"
       id="path50774" /><path
       style="color:#000000;stroke-linecap:round;-inkscape-stroke:none;fill:#000000;stroke:none"
       d="m 7.2734375,25.599609 a 0.80000001,0.80000001 0 0 0 -0.7988281,0.800782 0.80000001,0.80000001 0 0 0 0.7988281,0.798828 h 5.0000005 a 0.80000001,0.80000001 0 0 0 0.800781,-0.798828 0.80000001,0.80000001 0 0 0 -0.800781,-0.800782 z"
       id="path50776" /><g
       id="path50810"
       style="fill:#000000;stroke:none"><path
         style="color:#000000;stroke-width:1.6;stroke-linecap:round;-inkscape-stroke:none;fill:#000000;stroke:none"
         d="M 15.273638,10.199219 C 14.831962,10.199865 14.474377,10.558324 14.474809,11 c -4.32e-4,0.441676 0.357153,0.800135 0.798829,0.800781 h 5.999799 c 0.442438,4.33e-4 0.801214,-0.358343 0.800782,-0.800781 4.32e-4,-0.442438 -0.358344,-0.801214 -0.800782,-0.800781 z"
         id="path50841"
         sodipodi:nodetypes="ccccccc" /></g><g
       id="path50812"
       transform="translate(-1.9996043)"
       style="fill:#000000;stroke:none"><path
         style="color:#000000;fill:#000000;stroke:none;stroke-width:1.6;stroke-linecap:round;-inkscape-stroke:none"
         d="m 14.474218,15 c -0.442438,-4.32e-4 -0.801213,0.358343 -0.800781,0.800781 6.47e-4,0.441675 0.359106,0.79926 0.800781,0.798828 h 10.000391 c 0.440913,-6.45e-4 0.798183,-0.357915 0.798828,-0.798828 C 25.273869,15.359106 24.916284,15.000647 24.474609,15 Z"
         id="path50847"
         sodipodi:nodetypes="ccccccc" /></g></g><g
     id="path6045" /><g
     id="path6047" /></g></svg>
