<?xml version="1.0" encoding="UTF-8" standalone="no"?>
<!-- Generator: Adobe Illustrator 22.0.1, SVG Export Plug-In . SVG Version: 6.00 Build 0)  -->

<svg
   version="1.1"
   id="Layer_1"
   x="0px"
   y="0px"
   viewBox="0 0 30 30"
   xml:space="preserve"
   sodipodi:docname="rain-b.svg"
   inkscape:version="1.2.1 (9c6d41e4, 2022-07-14)"
   inkscape:export-filename="test.png"
   inkscape:export-xdpi="320"
   inkscape:export-ydpi="320"
   width="30"
   height="30"
   xmlns:inkscape="http://www.inkscape.org/namespaces/inkscape"
   xmlns:sodipodi="http://sodipodi.sourceforge.net/DTD/sodipodi-0.dtd"
   xmlns="http://www.w3.org/2000/svg"
   xmlns:svg="http://www.w3.org/2000/svg"><defs
   id="defs134" /><sodipodi:namedview
   id="namedview132"
   pagecolor="#ffffff"
   bordercolor="#666666"
   borderopacity="1.0"
   inkscape:showpageshadow="2"
   inkscape:pageopacity="0.0"
   inkscape:pagecheckerboard="0"
   inkscape:deskcolor="#d1d1d1"
   showgrid="true"
   inkscape:zoom="11.335488"
   inkscape:cx="23.422018"
   inkscape:cy="14.467838"
   inkscape:window-width="1280"
   inkscape:window-height="456"
   inkscape:window-x="0"
   inkscape:window-y="23"
   inkscape:window-maximized="0"
   inkscape:current-layer="g38671"
   showguides="true"
   inkscape:lockguides="false"><inkscape:grid
     type="xygrid"
     id="grid726"
     originx="0"
     originy="0" /><sodipodi:guide
     position="5,3.8"
     orientation="0,1"
     id="guide10276"
     inkscape:label=""
     inkscape:locked="false"
     inkscape:color="rgb(255,120,0)" /><sodipodi:guide
     position="5,5.8"
     orientation="0,1"
     id="guide11730"
     inkscape:label=""
     inkscape:locked="false"
     inkscape:color="rgb(255,120,0)" /><sodipodi:guide
     position="5,7.8"
     orientation="0,1"
     id="guide13184"
     inkscape:label=""
     inkscape:locked="false"
     inkscape:color="rgb(255,120,0)" /><sodipodi:guide
     position="5,9.8"
     orientation="0,1"
     id="guide14638"
     inkscape:label=""
     inkscape:locked="false"
     inkscape:color="rgb(255,120,0)" /><sodipodi:guide
     position="5,11.8"
     orientation="0,1"
     id="guide16092"
     inkscape:label=""
     inkscape:locked="false"
     inkscape:color="rgb(255,120,0)" /></sodipodi:namedview>

<g
   id="g2566"
   style="stroke:none;fill:#000000"><g
     id="g38671"
     transform="translate(2.7257767)"><path
       style="color:#000000;stroke-linecap:round"
       d="m 9.15625,16.427734 a 0.80000001,0.80000001 0 0 0 -0.9824219,0.5625 l -0.2734375,1 -0.2714844,1 -0.2714843,0.994141 -0.2734375,1.003906 -0.2734375,1 L 6.5351562,22.996094 6.265625,23.990234 5.9902344,25 a 0.80000001,0.80000001 0 0 0 0.5605468,0.982422 0.80000001,0.80000001 0 0 0 0.9824219,-0.560547 l 0.2753906,-1.011719 0.2714844,-0.992187 0.2734375,-1.007813 0.2734375,-1 0.2734375,-1.003906 0.2714844,-0.996094 0.2734375,-1 0.2714844,-1 A 0.80000001,0.80000001 0 0 0 9.15625,16.427734 Z"
       id="path21849" /><path
       style="color:#000000;stroke-linecap:round"
       d="m 12.755859,16.427734 a 0.80000001,0.80000001 0 0 0 -0.982421,0.5625 l -0.271485,1 -0.273437,1 -0.271485,0.994141 -0.273437,1.003906 -0.273438,1 -0.27539,1.007813 -0.2695316,0.99414 L 9.5898438,25 9.3183594,25.994141 9.046875,26.988281 a 0.80000001,0.80000001 0 0 0 0.5625,0.982422 0.80000001,0.80000001 0 0 0 0.980469,-0.5625 l 0.271484,-0.994141 0.271485,-0.992187 0.27539,-1.011719 0.271485,-0.992187 0.27539,-1.007813 0.271485,-1 L 12.5,20.40625 l 0.271484,-0.996094 0.273438,-1 0.273437,-1 a 0.80000001,0.80000001 0 0 0 -0.5625,-0.982422 z"
       id="path29111" /><path
       style="color:#000000;stroke-linecap:round;-inkscape-stroke:none"
       d="m 16.355469,16.427734 a 0.80000001,0.80000001 0 0 0 -0.982422,0.5625 l -0.271484,1 -0.273438,1 -0.271484,0.994141 -0.273438,1.003906 -0.273437,1 -0.273438,1.007813 -0.271484,0.99414 L 13.189453,25 A 0.80000001,0.80000001 0 0 0 13.75,25.982422 0.80000001,0.80000001 0 0 0 14.732422,25.421875 l 0.275391,-1.011719 0.271484,-0.992187 0.275391,-1.007813 0.271484,-1 0.27539,-1.003906 0.271485,-0.996094 0.271484,-1 0.273438,-1 a 0.80000001,0.80000001 0 0 0 -0.5625,-0.982422 z"
       id="path29113" /></g><g
     id="path6045" /><g
     id="path6047" /></g></svg>
