<?xml version="1.0" encoding="UTF-8" standalone="no"?>
<!-- Generator: Adobe Illustrator 22.0.1, SVG Export Plug-In . SVG Version: 6.00 Build 0)  -->

<svg
   version="1.1"
   id="Layer_1"
   x="0px"
   y="0px"
   viewBox="0 0 30 30"
   xml:space="preserve"
   sodipodi:docname="scattered_clouds-b.svg"
   inkscape:version="1.2.1 (9c6d41e4, 2022-07-14)"
   inkscape:export-filename="ti-6.svg"
   inkscape:export-xdpi="96"
   inkscape:export-ydpi="96"
   width="30"
   height="30"
   xmlns:inkscape="http://www.inkscape.org/namespaces/inkscape"
   xmlns:sodipodi="http://sodipodi.sourceforge.net/DTD/sodipodi-0.dtd"
   xmlns="http://www.w3.org/2000/svg"
   xmlns:svg="http://www.w3.org/2000/svg"><defs
   id="defs134" /><sodipodi:namedview
   id="namedview132"
   pagecolor="#ffffff"
   bordercolor="#666666"
   borderopacity="1.0"
   inkscape:showpageshadow="2"
   inkscape:pageopacity="0.0"
   inkscape:pagecheckerboard="0"
   inkscape:deskcolor="#d1d1d1"
   showgrid="true"
   inkscape:zoom="11.193447"
   inkscape:cx="21.307109"
   inkscape:cy="16.348851"
   inkscape:window-width="1280"
   inkscape:window-height="456"
   inkscape:window-x="0"
   inkscape:window-y="23"
   inkscape:window-maximized="0"
   inkscape:current-layer="g2566"
   showguides="true"><inkscape:grid
     type="xygrid"
     id="grid726"
     originx="0"
     originy="0" /><sodipodi:guide
     position="0.066666667,0.33333"
     orientation="0,-1"
     id="guide728"
     inkscape:locked="false" /></sodipodi:namedview>

<g
   id="g2566"
   style="stroke:none;fill:#000000"><path
     id="path4686"
     style="color:#000000;fill:#000000;stroke:none"
     d="M 11.052734 8.1503906 C 9.8178471 8.1629018 8.5967085 8.5141166 7.6171875 9.2636719 C 6.6535987 10.001034 6.0642691 11.205601 5.890625 12.638672 C 4.7464381 12.804162 3.7533477 13.273576 3.1132812 14.044922 C 2.3459254 14.969666 1.9861994 16.159697 2 17.339844 C 2.013801 18.519991 2.4034949 19.713634 3.2207031 20.634766 C 4.0066448 21.520654 5.2015367 22.115816 6.6699219 22.160156 C 6.6714029 22.140241 6.6722367 22.11936 6.6738281 22.099609 L 6.6777344 22.039062 L 7.0292969 20.564453 L 6.8457031 20.564453 C 5.6948232 20.564453 4.9428184 20.163859 4.4179688 19.572266 C 3.8931189 18.980668 3.6093952 18.157138 3.5996094 17.320312 C 3.5898236 16.483491 3.8558407 15.654391 4.34375 15.066406 C 4.8316593 14.478426 5.5152436 14.095703 6.546875 14.095703 L 7.3457031 14.095703 L 7.3457031 13.294922 C 7.3457031 11.951461 7.841243 11.108007 8.5898438 10.535156 C 9.2448691 10.033915 10.134308 9.7615087 11.070312 9.75 C 11.204028 9.74836 11.339585 9.7526498 11.474609 9.7617188 C 12.554816 9.8342697 13.635946 10.251189 14.417969 10.953125 C 14.888431 11.375407 15.256331 11.89388 15.476562 12.529297 C 15.48706 12.527179 15.497309 12.523557 15.507812 12.521484 L 15.546875 12.513672 L 16.978516 12.380859 C 16.708251 11.331771 16.213078 10.414043 15.486328 9.7617188 C 14.400298 8.7869086 12.992564 8.2607522 11.582031 8.1660156 C 11.405714 8.1541735 11.229148 8.1486033 11.052734 8.1503906 z " /></g></svg>
